<?xml version="1.0" encoding="utf-8"?>
<!-- Generator: Adobe Illustrator 24.0.0, SVG Export Plug-In . SVG Version: 6.00 Build 0)  -->
<svg version="1.1" id="Layer_1" xmlns="http://www.w3.org/2000/svg" xmlns:xlink="http://www.w3.org/1999/xlink" x="0px" y="0px"
	 viewBox="0 0 1920 1152" style="enable-background:new 0 0 1920 1152;" xml:space="preserve">
<style type="text/css">
	.st0{opacity:0.5;}
	.st1{fill:#E01010;}
</style>
<g id="Layer_2_1_" class="st0">
	<g id="Layer_1-2">
		<path class="st1" d="M982.6,1.4h133c0,0,3.8,0,3.8,5.4l6.9,18.4c7.6,19.4,14.5,39.3,20.6,59.6c0,12.2,6.1,24.5,8.4,35.9
			c2.3,11.5,3.8,16.1,6.1,24.5c5.2,23.6,16.9,45.3,33.6,62.7l13.8,14.5l22.2,22.9c21.4,27.1,33.8,60.3,35.2,94.8v8.4
			c0,19.9,3.8,40.5,7.6,61.2c8.9,47.2,14.7,95,17.6,143c0.4,16.4,3.5,32.7,9.2,48.2c6.5,19.6,22.7,34.4,42.8,39h15.3
			c16.7-0.4,32.8-6.3,45.9-16.8c21.9-17.7,38-41.7,45.9-68.8c7.1-24.9,10.7-50.6,10.7-76.5c-0.3-19,1.2-37.9,4.6-56.6
			c5.8-39.7,25.9-75.9,56.6-101.7c11.5-9.2,24.5-18.4,36.7-26.8l8.4-5.4c36.5-29.2,52.1-77.3,39.8-122.3c-2.3-3.9-5.1-7.6-8.4-10.7
			c-10.2-11.4-24.5-18.3-39.8-19.1c-10.2-0.7-20.4-0.7-30.6,0h-32.9c-10.9-0.1-21.7-1.7-32.1-4.6c-43-12.5-80.8-38.5-107.8-74.2
			c-11.1-14-19.9-29.8-26-46.6c0,0,0,0,0-5.4h62.7c2.4,1.8,4.2,4.2,5.4,6.9c7.9,16.8,19.1,31.9,32.9,44.3
			c25.1,21.3,57.4,32.3,90.2,30.6h19.9l58.1-8.4c13.2,0.8,26.5,0.8,39.8,0c10.4-3.2,18.6-11.2,22.2-21.4c4.1-12.9,6.9-26.3,8.4-39.8
			l0,0c0,0,0-6.9,0-9.2h58.9c2.4,1.8,4.2,4.2,5.4,6.9c7.7,11.2,18.3,20.2,30.6,26c10.7,4.5,21.7,8.3,32.9,11.5l0,0h10.7
			c14.3,3.5,28.4,8.1,42.1,13.8c16.7,6.8,30.7,18.9,39.8,34.4c13.5,24.4,18.7,52.7,14.5,80.3c-3.5,39-26.2,73.6-60.4,92.5
			c-24.9,13.8-51,25.4-78,34.4h-13.8c-15.5,3.7-30.6,8.8-45.1,15.3c-25.7,10.3-43.9,33.7-47.4,61.2c-1.5,14-1.5,28.1,0,42.1v7.6
			c0.3,14.5,2.3,28.9,6.1,42.8c11.7,43,38.9,80,76.5,104c21.8,14,44.6,26.5,68.1,37.5l16.8,8.4c22.6,11,44.4,23.8,65,38.2
			c10.8,6.1,20,14.8,26.8,25.2v143.8h-3.8l0,0c-16.8-14.5-30.6-27.5-42.8-39c-24.6-25.3-47.6-52.1-68.8-80.3
			c-17.2-22.8-36.1-44.3-56.6-64.2l-13.8-12.2c-15.3-14.5-32.1-29.8-47.4-46.6c-16.1-18-29.7-38-40.5-59.6
			c-15.4-30.4-26.2-62.8-32.1-96.3l0,0c-2-17.4-5.8-34.6-11.5-51.2c-3.9-11.9-15-19.9-27.5-19.9h-7.6c-6.8,1.3-13.3,3.9-19.1,7.6
			c-17.5,11.8-30.2,29.4-35.9,49.7c-6.6,21.3-10.2,43.4-10.7,65.8v9.9c-3.4,41-16,80.7-36.7,116.2c-13.7,24.4-33.1,45.2-56.6,60.4
			c-20.2,12.4-43.6,18.7-67.3,18.4c-11,0.3-22-0.5-32.9-2.3c-21.7-2.2-39.8-17.8-45.1-39c-3.2-12.5-5-25.3-5.4-38.2
			c0-11.5,0-22.9,0-34.4c0-11.5,0-25.2,0-39c-1.9-26.1-7.3-51.8-16.1-76.5c-10.8-29.4-23.6-58-38.2-85.6
			c-12-29.9-34.2-54.5-62.7-69.6c-9.8-5.9-20.7-9.6-32.1-10.7c-13,0-23.7,7.6-35.9,26c-17,26.8-35.9,52.3-56.6,76.5
			c-21.4,23.5-44.7,45.2-69.6,65c-23.1,17.4-42.2,39.5-55.8,65c0,6.9-6.9,13.8-9.9,21.4s-9.2,19.1-14.5,28.3
			c-15.6,31.8-43,56.3-76.5,68.1l-29.8,9.2l-41.3,13.8c-40.3,13.5-71.8,45.2-84.9,85.6c-8.7,22.9-11.4,47.7-7.6,71.9
			c3.8,20.6,13.1,39.9,26.8,55.8c28.2,32.3,53.8,66.8,76.5,103.2c6,10.9,13.2,21.2,21.4,30.6c11,15.4,28.5,24.7,47.4,25.2l0,0
			c29.3-1.9,56.6-15.1,76.5-36.7c17.8-18.7,32.1-40.4,42.1-64.2l0,0c15.5-31.7,36.8-60.2,62.7-84.1l76.5-66.5l41.3-36.7
			c23.2-23.2,54.4-36.6,87.2-37.5h6.9c18.2-0.4,35.6,7.5,47.4,21.4c8.3,9.3,15,19.9,19.9,31.4l9.2,19.1c10.2,22.3,21.7,44,34.4,65
			c11.9,19.7,28.1,36.4,47.4,48.9c13.6,8.5,29.1,13.3,45.1,13.8c10-0.1,19.9-2.2,29.1-6.1c9-3.6,17.7-7.9,26-13l15.3-9.9
			c13-7.6,26-16.1,39-22.2c18.7-9.8,39.3-15,60.4-15.3c8.6-1.1,17.4-1.1,26,0c39.4,6.2,70.3,37.1,76.5,76.5c2.7,18,2.7,36.3,0,54.3
			c-2.8,33.1-26.6,60.5-58.9,68.1c-17.9,3.3-36.1,5.1-54.3,5.4H1491c-30.9,3.4-58.9,20.2-76.5,45.9c-7,9.9-12.6,20.7-16.8,32.1
			c0.1,8.5-6.1,15.7-14.5,16.8h-76.5c-0.4-1.2-0.4-2.6,0-3.8c0.4-3,0.4-6.1,0-9.2c0,0,0-6.1,0-9.9c0.3-25.6,2.4-51.1,6.1-76.5
			c3-16.9-0.3-34.3-9.2-48.9c-9.6-18.1-18-36.7-25.2-55.8l-15.3-25.2c-8.4-22.2-17.6-44.3-28.3-66.5c-8.4-17.5-19.2-33.7-32.1-48.2
			c-11.9-14.2-29.6-22.4-48.2-22.2l0,0c-16.7,1-32.8,6.6-46.6,16.1c-21.4,13.8-41.3,29.8-61.2,45.1l-13,9.9
			c-19.4,14.8-37.1,31.7-52.8,50.5c-16.8,23.5-30.2,49.2-39.8,76.5c-16.5,40.5-40.1,77.8-69.6,110.1c-14.6,14.9-25.2,33.4-30.6,53.5
			c0.8,2,0.8,4.2,0,6.1h-98.6v-4.6c-7.3-19.7-20.4-36.8-37.5-48.9l-9.9-11.5c-16.5-12.4-32.3-25.7-47.4-39.8
			c-22.5-23.7-43-49.3-61.2-76.5c-15.5-24.2-35.2-45.4-58.1-62.7c-11.4-8.3-21.9-17.8-31.4-28.3c-18.4-19.9-35.2-40.5-52-61.2
			L429,796.6c-15.6-16-29-34-39.8-53.5c-16.8-41.3-25.1-85.5-24.5-130c-0.6-29.9,3-59.8,10.7-88.7c5.4-21,8.5-42.5,9.2-64.2
			c-1-35.2-10.7-69.7-28.3-100.2c-16.1-26.9-45.2-43.2-76.5-42.8h-7.6c-23.4,1-46.2,7.5-66.5,19.1c-19.2,10.3-37.4,22.3-54.3,35.9
			c-38.5,30.1-84,50.1-132.3,58.1H6.9v-76.5l0,0h26.8c17.2-4,33.8-9.9,49.7-17.6c19-5.8,37.4-13.2,55.1-22.2l15.3-6.9
			c36.6-17.5,76.5-26.9,117-27.5c10.7-0.8,21.4-0.8,32.1,0c32.8,4.2,61.4,24.2,76.5,53.5c16.8,30.5,28.4,63.6,34.4,97.9
			c3.7,22.3,3.7,45,0,67.3c0,14.5-5.4,28.3-8.4,42.1c-3.1,13.8,0,9.9,0,15.3c-7,30.3-8.8,61.6-5.4,92.5
			c5.2,57.3,38,108.4,87.9,136.9c10.7,7,23.1,11,35.9,11.5c18.4-0.7,35.2-10.8,44.3-26.8c9.4-12.3,17.8-25.4,25.2-39l9.2-14.5
			c20.6-33.2,50.4-59.7,85.6-76.5l44.3-19.1l26.8-7.6c39.2-15.2,66.8-50.8,71.9-92.5c3.2-21,4.5-42.2,3.8-63.5
			c-1.2-7.9-1.2-15.8,0-23.7c2.2-13.8,13-24.6,26.8-26.8H890c25.4-0.4,49.5-11.8,65.8-31.4c17.6-21.3,25.7-49,22.2-76.5
			c-6.2-32.9-16.3-65-29.8-95.6l-6.9-16.1c-7.2-21-12.8-42.4-16.8-64.2c-8.8-23.1-6-49,7.6-69.6c7.2-10.6,15.7-20.4,25.2-29.1
			l7.6-6.9C969.4,10.7,975.4,5.2,982.6,1.4 M982.6,1.4C972.3,6.7,963,13.7,955,22c-11.4,8.6-21.7,18.6-30.6,29.8
			c-14.8,22.7-17.7,51.3-7.6,76.5c7.6,24.5,18.4,48.2,28.3,71.9c14.5,29.2,25.5,60,32.9,91.8c9.4,49.4-23.1,97-72.5,106.3
			c-4.1,0.8-8.2,1.3-12.4,1.5H864c-14.9,2.4-26.6,14.1-29.1,29.1c-1.2,8.1-1.2,16.4,0,24.5c1.9,20.9,1.9,41.8,0,62.7
			c-4.8,40.9-31.9,75.7-70.3,90.2c-23.7,10.7-48.2,19.1-71.1,30.6c-35.8,16.5-66.1,43.1-87.2,76.5c-10.2,18.2-21.4,35.8-33.6,52.8
			c-8.6,15.3-24.5,25.1-42.1,26c-12.2-0.6-24-4.3-34.4-10.7C445.5,755,410.7,705.7,403,649c-3.6-30.7-1.8-61.7,5.4-91.8
			c4.6-19.1,9.2-38.2,12.2-57.3c3.5-22.6,3.5-45.5,0-68.1c-6.2-34.7-17.9-68.3-34.4-99.4c-15.5-29.3-43.8-49.6-76.5-55.1h-32.9
			c-43.3-0.2-86.1,10-124.6,29.8c-23.1,12.1-47.1,22.3-71.9,30.6c-15.5,4.1-31.4,6.7-47.4,7.6H13.8l0,0c-2-0.7-4.1-0.7-6.1,0v83.3
			c1.7,0.6,3.6,0.6,5.4,0h7.6c48.7-8.5,94.6-28.7,133.8-58.9c16.8-13.1,34.4-25.1,52.8-35.9c20.3-11,42.7-17.3,65.8-18.4h5.4
			c31.2-1.5,60.6,14.4,76.5,41.3c18.4,31.2,27.6,67,26.8,103.2c0,23.2-3.1,46.4-9.2,68.8c-7.6,27.4-11.2,55.7-10.7,84.1
			c0,45.3,9.4,90.1,27.5,131.5c9.6,19.5,21.7,37.8,35.9,54.3c22.2,27.5,43.6,55.8,68.8,81.8c9.7,10.4,20.2,20.2,31.4,29.1
			c22.5,16.9,41.9,37.6,57.3,61.2c18,27.5,38.8,53.1,61.9,76.5c17.5,16.3,35.9,31.6,55.1,45.9c16.5,11.8,29,28.4,35.9,47.4
			c1.6,2.9,3.7,5.5,6.1,7.6h94.1c2.6-2.2,4.5-5.1,5.4-8.4c5.5-19.5,15.7-37.4,29.8-52c29.7-32.9,53.5-70.6,70.3-111.6
			c8.9-27.4,22-53.2,39-76.5c15.5-18.9,33.2-35.9,52.8-50.5c23.7-19.1,48.2-38.2,76.5-55.1c13.4-9.1,29-14.4,45.1-15.3l0,0
			c17.6,0.3,34.3,8.1,45.9,21.4c12.7,14.4,23.5,30.3,32.1,47.4c14.5,29.1,25.2,60.4,36.7,90.2c7.6,19.3,16.2,38.2,26,56.6
			c8.4,14,11.4,30.6,8.4,46.6c-3.9,25.3-5.9,50.9-6.1,76.5c0,6.9,0,13,0,19.1s0,4.6,3.8,6.9h81.8c3.1-2,5.5-5,6.9-8.4
			c4.4-11.3,10-22.1,16.8-32.1c17.7-25.3,45.7-41.6,76.5-44.3c11.5,0,23.7,0,35.9,0c25.6-0.2,51.2-2.5,76.5-6.9
			c34-6.9,59.1-35.7,61.2-70.3c2.3-18.3,2.3-36.8,0-55.1c-4.9-41-35.9-74.1-76.5-81.8c-8.9-1.1-17.9-1.1-26.8,0
			c-21.6,0.2-42.8,5.4-61.9,15.3c-18.4,9.2-35.9,21.4-54.3,32.1c-8.3,5.1-17,9.4-26,13c-8.6,4.2-18,6.3-27.5,6.1
			c-15.5-0.7-30.5-5.4-43.6-13.8c-18.8-12-34.5-28.2-45.9-47.4c-16.3-27.1-30.9-55.2-43.6-84.1c-5.4-11.6-12.4-22.4-20.6-32.1
			c-12.2-14.4-30.1-22.5-48.9-22.2h-7.6c-33.6,0.8-65.7,14.5-89.5,38.2L969.6,853.2c-25.9,24.2-47.2,53-62.7,84.9
			c-10.4,24-24.9,46-42.8,65c-18.6,20.6-44.2,33.4-71.9,35.9l0,0c-18-0.8-34.6-9.8-45.1-24.5c-8-9.1-14.9-19.1-20.6-29.8
			c-22.8-36.3-48.4-70.8-76.5-103.2c-13.3-15.8-22.3-34.8-26-55.1c-3.6-23.7-1-48,7.6-70.3c14.7-40.1,47.6-70.8,88.7-82.6
			c23.7-9.2,47.4-15.3,71.1-22.9c33.5-12.5,60.9-37.4,76.5-69.6c9.2-16.1,16.1-33.6,24.5-50.5c13.4-25,32.2-46.7,55.1-63.5
			c25-19.9,48.3-41.9,69.6-65.8c20.8-24.2,40-49.7,57.3-76.5c11.5-17.6,21.4-24.5,32.9-24.5c11.1,1.1,21.9,4.7,31.3,10.7
			c25.6,14.1,46,36.1,58.1,62.7c14.7,27.8,27.3,56.7,37.5,86.4c8.8,24.6,14.2,50.4,16.1,76.5c0,24.5,0,48.2,0,76.5
			c0.5,13.2,2.5,26.3,6.1,39c6.9,22.1,27.3,37.2,50.5,37.5c10.9,0.8,21.9,0.8,32.9,0c24.2,0.3,48-6.1,68.8-18.4
			c23.6-14.6,43.5-34.5,58.1-58.1c20.5-35.3,32.5-74.8,35.2-115.5c0.9-25.9,5-51.6,12.2-76.5c5.1-19.8,17.4-36.9,34.4-48.2
			c5.7-3.3,11.9-5.6,18.4-6.9h6.9c11.4-0.1,21.4,7.4,24.5,18.4c6.1,15.4,10,31.6,11.5,48.2c4.7,32.5,14,64.1,27.5,94.1
			c11.2,22,25.1,42.5,41.3,61.2c19.9,20.6,40.5,39.8,61.2,58.9c20.5,20,39.4,41.4,56.6,64.2c22.2,27.5,44.3,55.1,68.8,76.5l42.8,39
			c0,0,4.6,5.4,7.6,5.4l0,0V689.5c-6.9-11.4-16.3-21-27.5-28.3c-20.4-15.1-42.1-28.1-65-39c-29.3-13.1-57.7-28.1-84.9-45.1
			c-37.2-23.6-64.5-60.1-76.5-102.5c-4-13.7-6-27.8-6.1-42.1c-1.5-16.3-1.5-32.7,0-48.9c4-26.3,21.4-48.6,45.9-58.9
			c20.7-8.2,42.2-14.1,64.2-17.6c28.9-8,56.8-19,83.3-32.9c34.9-19.2,58.1-54.4,61.9-94.1c4.1-28.4-1-57.3-14.5-82.6
			c-9.8-16-24.6-28.4-42.1-35.2c-17-7.2-34.7-12.8-52.8-16.8c-12.2-2.7-24.2-6.3-35.9-10.7c-11.8-5.6-21.9-14.3-29.1-25.2
			c-2.1-3.2-4.7-6-7.6-8.4h-61.2c-3.1,4.2-4.7,9.3-4.6,14.5c-1.3,12-4.1,23.9-8.4,35.2c-2.6,10-10.6,17.6-20.6,19.9
			c-12.6,2.8-25.4,4.9-38.2,6.1l-58.9,5.4H1517c-30.9,1-61.1-9.4-84.9-29.1c-13.6-12-24.8-26.5-32.9-42.8c-1.1-3.8-3.6-7-6.9-9.2
			h-64.2c-3.8,0,0,6.1,0,9.9c6.2,17,15.2,32.7,26.8,46.6c27.2,33.4,63.6,58.2,104.8,71.1c10.8,2.7,21.8,4.3,32.9,4.6h32.9
			c9.9-0.8,19.9-0.8,29.8,0c14.7,0.8,28.4,7.4,38.2,18.4c3.7,4.8,6.5,10.3,8.4,16.1c12.9,44-2.6,91.4-39,119.3
			c-15.3,9.9-30.6,20.6-45.1,32.1c-31.1,26.3-51.5,63-57.3,103.2c-3.4,18.9-5,38.1-4.6,57.3c0.3,25.9-3.3,51.7-10.7,76.5
			c-7.9,26.3-23.3,49.7-44.3,67.3c-12.7,9.9-28.2,15.5-44.3,16.1h-14.5c-17.1-6-30.2-20-35.2-37.5c-5.8-15.1-8.9-31.2-9.2-47.4
			c-2.8-48-8.7-95.7-17.6-143c-4.1-22.7-6.6-45.7-7.6-68.8c-3.7-35.7-18.4-69.3-42.1-96.3c-11.5-13.8-24.5-25.2-35.9-38.2
			c-16.3-17-27.7-38.2-32.9-61.2c-5.4-19.9-9.2-40.5-14.5-60.4s-18.4-52.8-27.5-76.5c0.5-3.4-0.6-6.8-3.1-9.2H982.6z"/>
		<path class="st1" d="M13.8,695.7L13.8,695.7l45.9,6.9c50.6,9.2,96.3,36.3,128.5,76.5c8.9,10.6,16.5,22.1,22.9,34.4
			c17,35.7,26.6,74.4,28.3,113.9l0,0c0.9,24.5,4.5,48.9,10.7,72.6c5.6,23.7,18.4,45.1,36.7,61.2c12.2,9.6,25,18.5,38.2,26.8
			l14.5,9.9c15.6,10.3,29.4,23.2,40.5,38.2c0,0,0,4.6,0,6.1h-67.3H299h-9.2c-5.3-0.7-10.7-0.7-16.1,0c-10-0.1-19.7,2.6-28.3,7.6H6.9
			v-48.2h4.6l0,0c5.8,0.8,11.7,0.8,17.6,0h29.1h42.8c20.2-3.9,39.9-9.8,58.9-17.6c17.2-6.3,30-21,33.6-39
			c4.6-22.1,6.9-44.7,6.9-67.3c1.5-21.9,1.5-43.9,0-65.8c-1-31.1-8.9-61.7-22.9-89.5c-15.5-32.6-42.8-58-76.5-71.1
			c-16.8-5.5-34.4-8.1-52-7.6H14.5l-7.6,0v-46.6l0,0 M6.9,697.2c-2.2-0.9-4.7-0.9-6.9,0v49.7c2.4,1,5.2,1,7.6,0h42.1
			c17.1-0.5,34.2,2.1,50.5,7.6c33.6,12.3,61.1,37.3,76.5,69.6c14.5,27.1,22.4,57.2,22.9,87.9c1.5,21.9,1.5,43.9,0,65.8
			c0,22.4-2.3,44.6-6.9,66.5c-2.8,17.1-14.9,31.2-31.4,36.7c-19.9,6.1-40.4,9.9-61.2,11.5H57.3H35.9c-5.8,0.7-11.7,0.7-17.6,0l0,0
			c-3.1-0.2-6,1.3-7.6,3.8v46.6c-3.8,5.4-3.8,5.4,1.5,5.4h234c8.3-5,17.8-7.6,27.5-7.6c5.1-0.8,10.2-0.8,15.3,0
			c8.1,1.8,16.1,4.3,23.7,7.6h76.5c0-4.6,0-7.6,0-10.7c-11.1-15.3-24.9-28.4-40.5-39c-18.4-12.2-36.7-22.9-53.5-36.7
			c-17.5-15.8-29.8-36.6-35.2-59.6c-6.3-25.1-10.2-50.7-11.5-76.5c-1.6-39.5-11.2-78.3-28.3-113.9c-6.6-12.6-14.5-24.4-23.7-35.2
			c-32.9-40.5-79.3-67.7-130.8-76.5l-49.7-10.7L6.9,697.2z"/>
		<path class="st1" d="M416,1.4h28.3c0,0,0,0,0,8.4c5.6,24.7,14.9,48.4,27.5,70.3c6.9,12.2,13.8,23.7,19.9,35.9l32.1,58.9
			c11.5,23.9,26.7,45.9,45.1,65c20.1,20.7,47.6,32.5,76.5,32.9h6.9c21.9-1.8,41.9-13,55.1-30.6c15.3-22.9,24.7-49.1,27.5-76.5
			c0-19.1,3.8-39,5.4-57.3v-6.9c0-29.1,6.1-58.1,9.9-85.6v-5.4c-0.3-2-0.3-4.1,0-6.1h66.5c-3.2,15.4-8.4,30.3-15.3,44.3
			c-15.1,34.8-25.1,71.7-29.8,109.3v6.1c-4.2,26-10.6,51.6-19.1,76.5c-3.7,15.1-10.8,29.2-20.6,41.3c-16.2,18.3-39.8,28.4-64.2,27.5
			h-19.1c-47.9-8.3-90.2-36-117-76.5c-14.6-20.6-27.9-42-39.8-64.2l0,0l-13.8-22.9c-15.3-24.6-29.1-50.1-41.3-76.5
			C426.2,48,419.3,25,416,1.4 M416,1.4c2.6,23,8.8,45.5,18.4,66.5c15.4,34.9,32.7,68.8,52,101.7c12.4,23.2,26.4,45.4,42.1,66.5
			c27.4,40.9,70.6,68.6,119.3,76.5h19.1c25.2,0.7,49.5-9.6,66.5-28.3c10.1-12.3,17.4-26.7,21.4-42.1c8.8-28.3,15.7-57.2,20.6-86.4
			c6.7-36.8,18.3-72.5,34.4-106.3c7.7-15.2,13.1-31.4,16.1-48.2h-71.9c-2.5,2.4-4.2,5.7-4.6,9.2c-5.1,29.9-8.7,60-10.7,90.2
			c0,22.9,0,45.1-6.1,68.1c-1.9,27.4-11.1,53.8-26.8,76.5c-12.6,17.1-32.3,27.5-53.5,28.3h-6.1c-27-1.1-52.5-12.6-71.1-32.1
			c-18.3-18.8-33.3-40.5-44.3-64.2c-16.8-32.1-35.2-63.5-52-94.8c-12.7-21.9-22-45.6-27.5-70.3c-0.1-4.4-2.4-8.4-6.1-10.7H416z"/>
		<path class="st1" d="M129.2,1.4h89.5c-2.5,10.2-5.8,20.2-9.9,29.8c-16.8,35.7-43.3,65.9-76.5,87.2c-18.5,13.3-40.7,20.5-63.5,20.6
			c-6.6,0.8-13.3,0.8-19.9,0l-30.6-4.6H6.9V31.2c2.5-0.8,5.2-0.8,7.6,0h61.9c17.4-1.3,33.7-8.9,45.9-21.4L129.2,1.4 M129.2,1.4
			L120,7.5c-11.3,12.2-26.9,19.6-43.6,20.6H62.7l-34.4-1.5H17.6c-3.8-0.4-7.6,0.7-10.7,3.1V136l45.9,7.6c6.6,0.8,13.3,0.8,19.9,0
			c23.4,0.1,46.2-7.5,65-21.4c33.3-21.8,59.9-52.5,76.5-88.7c3.5-10.5,6.3-21.2,8.4-32.1H129.2z"/>
		<path class="st1" d="M1918.5,951.8v98.6l0,0c-1.1,2.1-2.4,4.2-3.8,6.1c-10.6,9.4-21.8,18.1-33.6,26c-17.3,9.4-35.5,17.1-54.3,22.9
			l-16.8,6.1c-14.4,4.2-27.7,11.5-39,21.4c-3.5,3.7-7.7,6.8-12.2,9.2h-69.6c0.8-27.8,18.3-52.3,44.3-61.9l32.1-8.4l32.1-10.7
			c24.2-8.4,46.2-22.3,64.2-40.5c10.3-11.5,19.8-23.8,28.3-36.7l5.4-6.9l6.9-10.7l11.5-16.1 M1913.9,941.9
			c-8.6,10.5-16.5,21.4-23.7,32.9c-9.9,15.5-21.2,30.1-33.6,43.6c-17.5,18-39,31.6-62.7,39.8l-62.7,21.4
			c-27.1,11.8-43.9,39.3-42.1,68.8h65.8c5.1-2.6,9.7-6,13.8-9.9c10.9-9.8,24-16.9,38.2-20.6c24.5-7.8,48.3-17.8,71.1-29.8
			c12.1-7.7,23.6-16.4,34.4-26c2.5-3.3,4.5-6.9,6.1-10.7V943.4L1913.9,941.9z"/>
		<path class="st1" d="M223.3,1.4h60.4c0,0,0,0,0,6.9l0,0c-8.8,27.7-22.6,53.6-40.5,76.5l-15.3,20.6c-11.3,15.6-21.5,32-30.6,48.9
			c-7.6,10.7-12.9,23-15.3,35.9c-3.3,12,0.6,24.8,9.9,32.9c5.8,3.8,12.3,6.4,19.1,7.6c17.7,4.7,35.9,7.5,54.3,8.4h13.8
			c15.9,1.2,31.7,3.3,47.4,6.1c37.5,6.2,69,31.8,82.6,67.3c17.9,43.9,31.5,89.5,40.5,136.1c8.4,33.1,8.4,67.8,0,100.9
			c-5.3,17.7-8.8,35.9-10.7,54.3c-5.7,34.1,3.2,69.1,24.5,96.3c11.7,15,29.2,24.2,48.2,25.2c14.2-0.3,27.8-5.7,38.2-15.3
			c9.9-8.9,19.1-18.7,27.5-29.1c12.4-16,26.2-30.8,41.3-44.3c17.9-12.6,36.5-24.1,55.8-34.4h3.8h6.9c16.7-8.7,32.6-19,47.4-30.6
			c19.3-16.3,30-40.5,29.1-65.8c-1.4-26.3-7.4-52.2-17.6-76.5c-9.1-26.5-30.5-47-57.3-55.1c-18.4-4.8-36.5-10.7-54.3-17.6
			c-56.3-23.2-105-61.5-140.7-110.9c-41.5-56.8-75.9-118.4-102.5-183.5c-8.2-15.7-15.1-32.1-20.6-48.9l0,0c0-3.8,0-5.4,0-7.6h43.6
			c0.7,2.8,0.7,5.7,0,8.4c6.5,31.1,17.9,61.1,33.6,88.7c15.3,29.1,32.1,57.3,48.2,84.1l7.6,12.2c13.5,28.8,32.5,54.8,55.8,76.5
			c27.8,27,64.5,42.8,103.2,44.3h5.4c37.8,0.9,71.6-23.5,82.6-59.6c10-28.9,17.6-58.6,22.9-88.7c5.7-35.7,15.8-70.6,29.8-104l0,0
			c8.6-18.3,15.8-37.2,21.4-56.6l0,0h149.1c-3.2,1.6-6.2,3.4-9.2,5.4l-9.9,9.2c-8.3,6.7-15.8,14.4-22.2,22.9
			c-10.4,13-15.8,29.3-15.3,45.9c1.1,17.7,5.6,35.1,13,51.2c4.6,13,9.9,25.2,14.5,37.5l18.4,45.1c10.7,25,16.9,51.6,18.4,78.8
			c-0.6,39.4-26.1,74-63.5,86.4c-9.1,1.5-18.4,1.5-27.5,0h-13c-24.5,0-37.5,7.6-42.1,37.5c-0.8,10.7-0.8,21.4,0,32.1
			c0,8.4,0,17.6,0,26c-1.7,18.6-5.8,36.8-12.2,54.3c-11.8,26.6-33.9,47.3-61.2,57.3L731,613.1c-21,7.4-41.3,16.9-60.4,28.3
			c-22.2,12.6-41.5,29.8-56.6,50.5c-8.1,10.6-15.3,21.8-21.4,33.6c-7.7,13.2-16.1,26-25.2,38.2c-8.6,14.1-23.3,23.2-39.8,24.5
			c-7.6-0.3-15.1-1.8-22.2-4.6c-25.1-9.8-46.8-26.5-62.7-48.2c-32.4-43.9-46.1-98.9-38.2-152.9c2-14.7,5-29.3,9.2-43.6
			c-0.4-5.6-0.4-11.2,0-16.8c5.4-20.2,7.7-41.1,6.9-61.9c-4.1-45-17.4-88.8-39-128.5c-11.9-23.2-32.5-40.8-57.3-48.9
			c-16.5-5.4-33.8-8-51.2-7.6h-23.7c-39.6,3.8-78.1,15.5-113.2,34.4C97.8,331,54.6,342.1,10.7,341.6H6.9V137.5l0,0l0,0h14.5h16.8
			h27.5c13.6,0.3,27.2-2.3,39.8-7.6c24.8-11.6,46.8-28.6,64.2-49.7c20-21.8,34.7-48,42.8-76.5c-0.6-1.7-0.6-3.6,0-5.4 M212.6-1.7
			c-2.9,1.5-5,4.4-5.4,7.6c-7.7,28.5-22.1,54.7-42.1,76.5c-17,20.6-38.4,37.1-62.7,48.2c-12.4,5.1-25.6,7.7-39,7.6
			c-9.2,0.8-18.4,0.8-27.5,0l-30.6-5.4l0,0c-1.7-0.7-3.6-0.7-5.4,0v213.3h10.7c44.3,0.2,88-10.9,126.9-32.1
			c34.5-18.9,72.5-30.6,111.6-34.4H273c17.1-0.1,34.1,2.5,50.5,7.6c23.9,7.9,43.7,25,55.1,47.4c21.6,38.6,34.9,81.3,39,125.4
			c1.7,23.1-0.1,46.3-5.4,68.8c-5.4,20.1-9.8,40.6-13,61.2c-8.4,55.4,5.6,111.8,39,156.8c15.9,22.7,38.3,40.1,64.2,49.7
			c7.3,2.8,15.1,4.4,22.9,4.6c17.5-1.2,33.2-10.9,42.1-26c17.6-22.2,29.8-48.2,46.6-71.1c14.9-20.5,33.9-37.7,55.8-50.5
			c28.8-15.7,58.7-29.2,89.5-40.5c28.1-10.6,50.7-32.1,62.7-59.6c6.4-17.8,10.5-36.3,12.2-55.1c0-19.1,0-38.2,0-58.1
			c0-19.9,14.5-32.9,39-34.4c13.7,1.1,27.6,1.1,41.3,0c43.4-12.3,72-53.7,68.1-98.6c-1.8-26.3-8-52.2-18.4-76.5
			c-10.7-27.5-22.9-54.3-33.6-81.8c-6.8-16.1-10.9-33.1-12.2-50.5c-0.2-16,4.9-31.6,14.5-44.3c9.7-11.6,20.5-22.4,32.1-32.1
			l17.6-20.6H829.6c0,0-4.6,0-4.6,6.1c-5.8,20.2-13.2,39.9-22.2,58.9c-15,33.4-25.5,68.6-31.4,104.8c-5.5,28.2-13.5,55.8-23.7,82.6
			c-8.9,34.7-40.7,58.5-76.5,57.3h-8.4c-38.3-1.5-74.5-17.4-101.7-44.3c-22.1-20.6-40.7-44.6-55.1-71.1
			c-19.1-31.4-40.5-62.7-55.8-95.6c-15.2-27.5-26.3-57.2-32.9-87.9c-0.4-4-2-7.7-4.6-10.7h-46.6c0,3.8,0,8.4,0,13
			c4.7,17,10.6,33.6,17.6,49.7c27.9,65.2,63.6,126.9,106.3,183.5c37.3,49.1,87.6,86.8,145.3,108.6c17.6,6.9,35.9,12.2,54.3,17.6
			c26.1,7.6,46.7,27.6,55.1,53.5c10.5,24.2,16.5,50.1,17.6,76.5c1.3,24.5-9.2,48.1-28.3,63.5c-16.6,13.1-34.5,24.3-53.5,33.6
			c-21.5,9.5-42.2,20.8-61.9,33.6c-17.5,14-33.4,29.9-47.4,47.4c-8.9,10.2-18.6,19.7-29.1,28.3c-9.6,9.4-22.5,14.7-35.9,14.5
			c-16.3-2.1-31-11-40.5-24.5C445.3,673.7,436.8,640,442,607c2-18.4,5.6-36.5,10.7-54.3c8.4-33.6,8.4-68.8,0-102.5
			c-9.3-46.8-22.9-92.6-40.5-136.9c-14.2-36.3-46.5-62.4-84.9-68.8c-17.2-3.2-34.5-5.3-52-6.1c-21.3-0.6-42.6-3.2-63.5-7.6
			c-6.4-1.4-12.5-4.2-17.6-8.4c-8.7-7.2-12.6-18.8-9.9-29.8c2.7-13.6,7.9-26.5,15.3-38.2c13.8-22.2,29.8-42.1,45.1-62.7
			c18.1-22.9,32-48.8,41.3-76.5c1.9-3.9,1.9-8.4,0-12.2L212.6-1.7z"/>
		<path class="st1" d="M1121,1.4h63.5c3.1,2.5,5,6,5.4,9.9l0,0c6.4,16.5,16,31.6,28.3,44.3c3.6,4.4,8.8,7.2,14.5,7.6h4.6
			c6.1-3,10-9.2,9.9-16.1l0,0c0.7-8.7,0.7-17.3,0-26c-0.8-4.3-0.8-8.7,0-13l0,0c0,0,0-5.4,0-6.9h72.6c4.1,14.5,10.6,28.1,19.1,40.5
			c16.1,23,36.6,42.5,60.4,57.3c22.8,15.9,49,26.1,76.5,29.8h59.6c11.5-0.5,22.9,1.4,33.6,5.4c16.8,4.6,29.4,18.7,32.1,35.9
			c1.6,13.5,1.6,27.1,0,40.5c-1.4,27.5-14.8,52.9-36.7,69.6l-19.1,26.8l-14.5,9.9c-35,25.6-58.8,63.6-66.5,106.3
			c-3.3,20.2-5.1,40.7-5.4,61.2c0,6.9,0,13.8,0,21.4c-0.8,28-7.9,55.4-20.6,80.3c-12.2,30-38.6,51.8-70.3,58.1h-9.2
			c-24.8-2.1-45.6-19.5-52-43.6c-7.3-20.7-11.9-42.3-13.8-64.2v-9.9c-0.6-19.2-2.4-38.4-5.4-57.3c-6.9-42.1-14.5-90.2-19.1-137.6
			c-2.9-35.4-18.1-68.6-42.8-94.1l-12.2-12.2l-20.6-21.4c-9.2-10.4-16.4-22.3-21.4-35.2c-7.4-17.8-13.3-36.2-17.6-55.1
			c-6.7-29.8-15.1-59.1-25.2-87.9L1121,1.4 M1116.4,1.4c14.8,36.9,27.3,74.7,37.5,113.2c3.7,19,8.8,37.6,15.3,55.8
			c4.9,13.2,12.1,25.4,21.4,35.9l32.9,33.6c24.4,24.7,39.3,57.2,42.1,91.8c4.6,46.6,11.5,92.5,19.1,137.6
			c3.8,22.9,4.6,46.6,6.1,69.6c1,21.2,4.3,42.2,9.9,62.7c7.7,25.7,31.3,43.4,58.1,43.6h9.9c32.4-6.9,59.5-29.2,72.6-59.6
			c12.3-25.8,18.6-54,18.4-82.6c0.1-27.6,2.2-55.2,6.1-82.6c8.7-42.4,34-79.6,70.3-103.2l41.3-29.8c23.2-18.6,37-46.7,37.5-76.5
			c1.5-13.7,1.5-27.6,0-41.3c-2.8-18.5-16.3-33.5-34.4-38.2c-11.1-3.7-22.7-5.6-34.4-5.4h-58.9c-27.5-3.2-53.8-13.2-76.5-29.1
			c-23.7-14.3-44.1-33.6-59.6-56.6c-10-11.5-17.8-24.7-22.9-39h-76.5c-3.8,0,0,6.9,0,10.7c0.8,12.7,0.8,25.5,0,38.2
			c0,6.1,0,13-8.4,15.3h-3.8c-4.9-0.4-9.4-2.9-12.2-6.9c-12.1-12.6-21.7-27.4-28.3-43.6c-2.2-6.5-7.3-11.5-13.8-13.8H1116.4z"/>
		<path class="st1" d="M1153.8,781.3c12.4,0.1,24.5,4.1,34.4,11.5c10.7,8.7,20,19.1,27.5,30.6c16.4,27.3,30,56.3,40.5,86.4v7.6l0,0
			c10,26.1,21.5,51.7,34.4,76.5c8.2,13.8,10.9,30.2,7.6,45.9c-3.7,25.3-5.5,50.9-5.4,76.5c-0.4,3.3-0.4,6.6,0,9.9c0,0,0,6.9,0,10.7
			h-81.8c-3.1-2.8-5.7-6.2-7.6-9.9v-4.6c-9.3-13.9-17-28.7-22.9-44.3c-15.1-45.8-20.3-94.3-15.3-142.2v-6.9
			c1.5-14.5,1.5-29.1,0-43.6c-1.9-20.2-18.7-35.6-39-35.9h-6.1c-24.8,4-48.5,13.1-69.6,26.8c-13.8,8.5-26.1,19.1-36.7,31.4
			c-17.9,21.1-31,45.9-38.2,72.6c-14.6,48.3-26.6,97.3-35.9,146.8l0,0c0,4.6,0,6.9,0,8.4H839.6c2.5-13.4,7.7-26.2,15.3-37.5
			c8.1-11.4,16.8-22.4,26-32.9c15.7-17.7,29.3-37.2,40.5-58.1c8.3-15.1,15.7-30.7,22.2-46.6c3.9-10.5,8.5-20.7,13.8-30.6
			c12.7-25.9,30.3-49,52-68.1c28.6-25.6,59-49.2,91-70.3c11.1-8.4,23.9-14.4,37.5-17.6c5.8-0.7,11.7-0.7,17.6,0 M1155.4,773.7H1137
			c-13.9,3-26.9,9-38.2,17.6c-31.9,21.9-62.6,45.7-91.8,71.1c-21.9,19.3-39.8,42.7-52.8,68.8c-12.2,26-22.2,52.8-35.9,76.5
			c-11.1,20.5-24.5,39.7-39.8,57.3c-9.3,10.4-18,21.4-26,32.9c-8.7,12.6-14.4,27-16.8,42.1h98.6c5.4,0,5.4-6.9,6.1-11.5
			c9.7-51,21.9-99.9,36.7-146.8c7.2-26.4,20-50.9,37.5-71.9c10.3-12,22.4-22.3,35.9-30.6c20.6-13.4,43.8-22.3,68.1-26h6.1
			c18.8,0.3,34.4,14.9,35.9,33.6c2.3,16.5,2.3,33.2,0,49.7c-4.9,48.5,0.3,97.4,15.3,143.8c6.1,15.9,14,31.1,23.7,45.1
			c2.4,6,6.4,11.3,11.5,15.3h95.6c0-8.4,0-16.1,0-23.7c-0.1-25.6,1.9-51.2,6.1-76.5c0.3-16.1-4.5-31.9-13.8-45.1
			c-13.7-24.7-25.7-50.2-35.9-76.5c-11.1-32.8-25.7-64.4-43.6-94.1c-7.3-12.2-16.9-22.8-28.3-31.4c-10.3-7.9-22.9-12.2-35.9-12.2
			V773.7z"/>
		<path class="st1" d="M1913.1,1.4L1913.1,1.4L1913.1,1.4v354h-5.4h-12.2l-18.4-6.9c-44.5-12-91.8-8.2-133.8,10.7
			c-34.5,13.8-55.7,48.7-52,85.6c0.5,32.6,15.6,63.2,41.3,83.3c26.7,20.4,59.7,31,93.3,29.8h22.2c15.2-2,30.2-4.8,45.1-8.4h14.5
			h10.7v139.9l-6.9-6.9l-6.9-7.6c-16.1-13.2-33.5-24.7-52-34.4l-38.2-19.1l-53.5-28.3c-29.4-15.7-54.2-38.9-71.9-67.3
			c-25.8-41.2-35.1-90.6-26-138.4c3.2-28.9,22.4-53.5,49.7-63.5c15.3-6.1,31.3-10.7,45.9-15.3h13.8c29.1-7.7,57.1-19,83.3-33.6
			c13.4-7.5,24.9-18,33.6-30.6c22.7-33.3,30-74.9,19.9-113.9c-5.2-27.6-23.4-51-48.9-62.7l-35.9-15.3l-13.8-3.8
			c-15.5-3.4-30.6-8.3-45.1-14.5c-13.7-6.6-24.2-18.5-29.1-32.9h175.9l0,0 M1912.4,1.4h-180.5c5.9,16,18.1,29,33.6,35.9
			c19,8,38.7,14.1,58.9,18.4c11.2,3.1,22.2,7,32.9,11.5c24.9,11,42.6,33.6,47.4,60.4c10.2,38.3,3,79.2-19.9,111.6
			c-8.4,12-19.4,21.9-32.1,29.1c-25.9,15.1-53.6,26.7-82.6,34.4c-20.2,5-40.1,11.1-59.6,18.4c-28.9,9.6-49.3,35.4-52,65.8
			c-9.3,48.5,0,98.7,26,140.7c18.6,27.2,43.5,49.5,72.6,65l91.8,47.4c18.1,9.5,35.3,20.8,51.2,33.6c5.5,6.1,11.6,11.5,18.4,16.1
			V536.6c-1.5-0.5-3.1-0.5-4.6,0h-4.6c-19.3,5.5-39,9.6-58.9,12.2h-22.2c-32.8,1.4-65-8.9-91-29.1c-25.2-19.4-40.1-49.3-40.5-81.1
			c-5-36,16.1-70.6,50.5-82.6c24.1-10.9,50.1-16.9,76.5-17.6c17.3,0.1,34.5,2.4,51.2,6.9l30.6,10.7h5.4h3.8V8.3
			c3.8-6.9,3.8-6.9-1.5-6.9H1912.4z"/>
		<path class="st1" d="M45.9,746.9h16.1c20.7-0.2,41.1,5.3,58.9,16.1c49.5,30.4,79.9,84.1,80.3,142.2c1.1,20.4,1.1,40.8,0,61.2
			c-0.4,7.1-0.4,14.3,0,21.4c0.8,14,0.8,28,0,42.1c-0.7,15.3-6.6,29.9-16.8,41.3c-8.2,7.2-18.3,11.9-29.1,13.8
			c-26.8,6.3-54.3,9.4-81.8,9.2H6.9v-48.2c1.7-0.8,3.7-0.8,5.4,0l0,0h28.3h10.7c18.3-0.7,36.4-4.3,53.5-10.7
			c23-9.4,41-27.9,49.7-51.2c10.2-25.8,14.6-53.4,13-81.1c0.6-21-4.2-41.8-13.8-60.4c-14-35-47.9-58-85.6-58.1l0,0
			c-12.9,0.4-25.6,1.9-38.2,4.6H17.6H6.9v-41.3h39 M45.9,747.7c-13-0.8-26-0.8-39,0v45.9c1.9,1,4.2,1,6.1,0h3.8
			c16.3-3.8,33-6.1,49.7-6.9l0,0c35.7-0.3,68.2,20.8,82.6,53.5c9.6,17.8,14.3,37.9,13.8,58.1c1,26-3.2,52-12.2,76.5
			c-8.7,22.7-26.4,40.7-48.9,49.7c-16.7,6.3-34.2,9.9-52,10.7H15.3c-3.3-0.2-6.4,1.2-8.4,3.8v52.8h61.9c27.8,0.4,55.6-2.6,82.6-9.2
			c11.3-1.9,21.9-7,30.6-14.5c10.7-11.7,17-26.9,17.6-42.8c0-21.4,0-42.8,5.4-64.2c1.5-20.4,1.5-40.8,0-61.2
			c-0.7-59.2-31.5-114-81.8-145.3c-18.4-10.6-39.2-16.2-60.4-16.1L45.9,747.7z"/>
		<path class="st1" d="M1918.5,1058.1v90.2h-152.9c5-6.1,10.9-11.2,17.6-15.3c9.7-5.5,20-10.1,30.6-13.8h4.6l15.3-5.4
			c10.7-3.8,22.2-7.6,33.6-13c19.4-9.8,37.1-22.4,52.8-37.5 M1920,1056.6c-16.9,16.8-36.2,31-57.3,42.1
			c-15.3,6.9-32.1,12.2-48.2,17.6c-12.3,4.6-24.3,9.9-35.9,16.1c-8.8,5.6-16.3,12.8-22.2,21.4h158.3c3.8,0,5.4,0,5.4-5.4V1056.6z"/>
		<path class="st1" d="M273.7,1136.9L273.7,1136.9c9-0.1,17.8,1.7,26,5.4h-47.4c1.9-1.9,4.3-3.2,6.9-3.8h14.5l0,0 M273.7,1138.4
			h-14.5c-5.7,1.1-10.5,4.8-13,9.9h66.5c-11.4-7.5-24.6-11.5-38.2-11.5L273.7,1138.4z"/>
		<path class="st1" d="M1556.8,888.4L1556.8,888.4c18.6-0.6,36.1,8.7,45.9,24.5c15.9,27.7,9.1,62.9-16.1,82.6
			c-14.6,10.6-32.5,15.8-50.5,14.5c-20.4,0.2-40.5-4.2-58.9-13c-7.6-4.6-14.5-9.2-16.1-17.6c-1.9-10,0-20.4,5.4-29.1l14.5-19.9
			c16-21.7,39.9-36.2,66.5-40.5h9.2l0,0 M1556.8,889.9h-9.9c-27.5,4-52.2,19.2-68.1,42.1c-5.3,6.3-10.1,12.9-14.5,19.9
			c-5.9,9.3-8,20.5-6.1,31.4c2.3,8.9,8.9,16.1,17.6,19.1c18.7,9.4,39.5,14.1,60.4,13.8c18.8,1.1,37.5-4.3,52.8-15.3
			c25.9-20.5,33-56.8,16.8-85.6c-10.4-16.8-29.1-26.8-48.9-26L1556.8,889.9z"/>
		<path class="st1" d="M1106.4,300.3h10.7c25.6,8,47.9,24.1,63.5,45.9c13.1,19.5,24.4,40.3,33.6,61.9l3.8,9.2
			c23.2,47.6,35,100,34.4,152.9c-0.4,22.2,0.9,44.5,3.8,66.5c2.6,27.2,23.5,49,50.5,52.8c11.4,1.1,23,1.1,34.4,0
			c11.7,1.2,23.5,1.2,35.2,0c42.9-13.8,77.9-45.2,96.3-86.4c19.3-40.7,30.3-84.9,32.1-130c0.4-23.4,6.1-46.4,16.8-67.3
			c8.2-18.1,23.8-31.7,42.8-37.5h9.2c12.1,0.8,22.5,9,26,20.6c5.3,16.2,9.2,32.8,11.5,49.7v13c6.7,43.4,23.7,84.6,49.7,120
			c18.9,23.7,39.9,45.7,62.7,65.8l10.7,9.2c19,18.6,36.9,38.2,53.5,58.9l12.2,16.1L1842,766c23.8,27.1,49.4,52.6,76.5,76.5v103.2
			v6.1c-1.1,2.4-2.4,4.7-3.8,6.9l-7.6,10.7l-18.4,26.8c-21.1,31.8-52,55.9-87.9,68.8l-35.2,6.9l-26,7.6
			c-26.8,7.8-46.5,30.5-50.5,58.1c1.2,3.5,1.2,7.2,0,10.7h-61.2c-2.1-1.5-3.8-3.6-4.6-6.1c-5.2-12.1-15.2-21.5-27.5-26
			c-18.7-8.6-39-13.2-59.6-13.8c-13.7-0.2-27.3,1.6-40.5,5.4c-18.6,4.5-34.6,16.4-44.3,32.9h-4.6H1387l0,0
			c2.1-6.1,4.6-11.9,7.6-17.6c12.9-29,38.2-50.6,68.8-58.9c17.3-3.8,35-5.3,52.8-4.6h31.4c16.4-0.9,32.8-3,48.9-6.1
			c26.9-5.6,48.3-26.1,55.1-52.8c4.8-18.7,6.3-38.1,4.6-57.3c-0.7-16.2-4.8-32.2-12.2-46.6c-16.6-33.7-51.1-54.9-88.7-54.3
			c-23.4-0.1-46.4,6.3-66.5,18.4l-25.2,15.3l-36.7,21.4c-11.9,7.4-25.7,11.4-39.8,11.5c-16.4-0.6-32.4-5.9-45.9-15.3
			c-17.9-12.2-33-28.1-44.3-46.6c-13.8-22-25.8-45-35.9-68.8l-6.1-12.2c-3.5-8.6-7.9-16.8-13-24.5c-9.5-15.6-24.9-26.7-42.8-30.6
			c-7.4-0.8-14.8-0.8-22.2,0c-21.9,0.5-43.3,6.9-61.9,18.4c-18.6,12.1-35.8,26.2-51.2,42.1l-4.6,3.8l-60.4,54.3l-6.1,5.4
			c-22.3,19-42.3,40.6-59.6,64.2c-9.9,14.5-18.4,30.6-26.8,45.9c-8.4,15.3-9.9,18.4-15.3,27.5c-16.3,30.3-43.7,53.1-76.5,63.5
			c-6.3,1.2-12.8,1.2-19.1,0c-19.6-0.7-37.9-10.3-49.7-26c-9.9-13.8-19.1-28.3-26.8-40.5c-15.9-27-34-52.6-54.3-76.5
			c-8-10-15.4-20.5-22.2-31.4c-14.3-22.8-19.7-50-15.3-76.5c3.5-29.8,16-57.8,35.9-80.3c16.6-16.2,36.4-28.7,58.1-36.7l40.5-13
			l32.1-9.9c26.8-9.7,49.5-28.3,64.2-52.8c9.2-13.8,17.2-28.4,23.7-43.6l6.9-12.2c7.8-15.9,17.8-30.6,29.8-43.6
			c11.8-11.7,24.3-22.7,37.5-32.9l26-21.4c17.7-17,34.1-35.4,48.9-55.1c13-16.1,25.2-32.9,36.7-49.7l9.9-16.8
			c5.4-9.9,15.5-16.3,26.8-16.8 M1104.1,300.3c-12.4,0.5-23.7,7.5-29.8,18.4c-16.1,22.2-30.6,45.9-48.2,67.3
			c-15.1,18.4-31.5,35.8-48.9,52c-20.6,19.1-44.3,35.2-63.5,55.8c-11.2,12.9-20.4,27.3-27.5,42.8c-9,20.2-19.2,39.9-30.6,58.9
			c-14.6,23.6-36.7,41.6-62.7,51.2c-24.5,8.4-48.9,13.8-72.6,23.7c-53,16.6-90.9,63.3-96.3,118.5c-3.6,26.5,1.8,53.4,15.3,76.5
			c6.9,10.7,15.3,20.6,22.9,30.6c20.1,24,38.2,49.6,54.3,76.5c8.2,14,17.1,27.5,26.8,40.5c11.9,16.9,31.3,27.2,52,27.5
			c6.6,0.8,13.3,0.8,19.9,0c32.5-11.7,59.7-34.8,76.5-65c13.8-24.5,25.2-50.5,41.3-76.5c17-23.7,37.1-45,59.6-63.5L1059,776
			c16.7-16.9,35.2-32,55.1-45.1c18.1-11.5,39-17.8,60.4-18.4c7.1-0.8,14.3-0.8,21.4,0c16.8,4,31.4,14.4,40.5,29.1
			c5.2,7.6,9.8,15.5,13.8,23.7c11.9,28.3,25.9,55.7,42.1,81.8c11.5,19,26.9,35.4,45.1,48.2c14,9.5,30.5,14.8,47.4,15.3
			c14.5-0.2,28.7-4.1,41.3-11.5l61.9-36.7c19.3-12,41.5-18.3,64.2-18.4l0,0c37.7-2.8,73.4,17,91,50.5c7.3,13.9,11.2,29.4,11.5,45.1
			c2,19,0.5,38.2-4.6,56.6c-6.3,25.6-26.9,45.3-52.8,50.5c-18.9,4-38.1,6-57.3,6.1c-25.6-0.7-51.3,1.4-76.5,6.1
			c-31.6,7.9-57.8,29.9-71.1,59.6c-3.8,8.4-7.6,16.8-10.7,25.2h64.2c0,0,5.4,0,6.9-6.1c9.7-15.6,25-26.8,42.8-31.4
			c12.9-3.6,26.3-5.4,39.8-5.4c18.8-0.1,37.5,3.3,55.1,9.9c11.9,4.3,21.3,13.5,26,25.2c1.6,3.1,4,5.7,6.9,7.6h65.8
			c2.6-3,4.2-6.7,4.6-10.7c3.3-26.6,22.3-48.6,48.2-55.8c18.4-6.1,36.7-10.7,54.3-17.6c36.6-12.5,68-36.7,89.5-68.8
			c8.4-13,17.6-25.2,26-37.5c2.9-4.5,5.2-9.4,6.9-14.5V837.9c-27.4-23.5-53-49-76.5-76.5c-17.6-19.9-33.6-40.5-49.7-60.4
			c-16.3-21.2-34.5-40.9-54.3-58.9c-26.4-23.3-50.7-48.9-72.6-76.5c-25.8-35.1-42.6-76.1-48.9-119.3c-2.6-21.4-7.4-42.4-14.5-62.7
			c-3.4-12.9-15-21.9-28.3-22.2c-3.3-0.7-6.7-0.7-9.9,0c-20,5.4-36.5,19.4-45.1,38.2c-10.2,21.6-16,45-16.8,68.8
			c-1.8,44.6-12.7,88.3-32.1,128.5c-15.9,43.6-50.8,77.7-94.8,92.5c-12.4,1.5-25,1.5-37.5,0c-10.2,0.9-20.4,0.9-30.6,0
			c-25.1-4.9-43.4-26.5-44.3-52c-2.8-21.8-4.1-43.8-3.8-65.8c0.1-52.9-11.6-105.2-34.4-152.9c-10.3-24.9-23.1-48.8-38.2-71.1
			c-15.8-22.3-38.3-38.9-64.2-47.4h-12.2H1104.1z"/>
		<path class="st1" d="M276,315.6h16.1c20,2.1,38.4,12,51.2,27.5c24.3,30.1,37.8,67.6,38.2,106.3c1.1,25.8-2,51.6-9.2,76.5
			c-7.4,28.4-10.8,57.8-9.9,87.2c0.7,19.7,2.5,39.4,5.4,58.9c5.3,41.7,22,81.1,48.2,113.9c14.5,19.1,29.1,37.5,44.3,55.8
			c18,23.8,38.8,45.4,61.9,64.2c23.1,17.6,43.3,38.7,59.6,62.7c12.8,20.1,27.2,39.3,42.8,57.3c21.5,22.7,44.8,43.7,69.6,62.7
			l9.9,7.6c16.1,12.4,27.9,29.5,33.6,48.9h-82.6l0,0c-15.5-27.3-35.1-52.1-58.1-73.4c-24.5-24-53.3-43.2-84.9-56.6
			c-33.4-14.3-59.2-42.1-71.1-76.5l-4.6-12.2c-6.9-18.4-13.8-38.2-22.2-56.6c-9.1-21.5-20.3-42-33.6-61.2c-3-4.1-5.5-8.4-7.6-13
			c-12.5-18.4-21.1-39.3-25.2-61.2c-7-40.2-11.3-80.8-13-121.6c-2.1-37.5,1.5-75.2,10.7-111.6c8.9-30.5,8.9-62.8,0-93.3
			c-8.9-30.8-36.1-52.8-68.1-55.1c-9.4,0.3-18.7,2.1-27.5,5.4c-26,10.8-49.7,26.7-69.6,46.6c-23.1,22.3-48.8,41.8-76.5,58.1
			l-32.9,17.6C52,490,32.9,499.9,14.5,510.6v-76.5h0.8c40.1-7,78.5-21.5,113.2-42.8l31.4-24.5c12.2-9.2,26-18.4,39-26.8
			c22.9-14.8,49.3-23.3,76.5-24.5 M275.3,315.6c-28.8,1-56.8,9.7-81.1,25.2c-23.7,13.8-45.1,32.1-68.1,47.4
			c-34.6,19.5-72.4,32.7-111.6,39H6.9v86.4c30.6-18.4,62.7-32.9,94.1-49.7c27.6-16.7,53.3-36.4,76.5-58.9
			c20-19.3,43.3-34.9,68.8-45.9c33.7-14.6,72.9,0.8,87.5,34.5c1.9,4.4,3.3,9,4.2,13.6c8.4,30,8.4,61.8,0,91.8
			c-8,37.4-10,75.9-6.1,113.9c1.6,42.5,6,84.9,13,126.9c4.5,22.3,13.1,43.5,25.2,62.7c16.1,24.3,30.2,49.9,42.1,76.5l26.8,68.8
			c12,34.6,38.1,62.4,71.9,76.5c30.9,10.5,59.7,26.6,84.9,47.4c22.1,19.9,40.9,43.1,55.8,68.8v4.6h90.2
			c-5.2-21.6-17.6-40.7-35.2-54.3c-27.6-21.1-53.1-44.6-76.5-70.3c-15.5-17.9-29.8-36.8-42.8-56.6c-16.5-24.4-36.9-45.8-60.4-63.5
			c-22.3-17.2-42.9-36.7-61.2-58.1l-44.3-55.1c-25.3-33-41.6-72-47.4-113.2c-4.1-20.2-6.9-40.6-8.4-61.2
			c-0.9-29.4,2.5-58.7,9.9-87.2c7-24.9,10.1-50.7,9.2-76.5c-0.7-39.1-14.1-77-38.2-107.8c-13.6-16.4-33.1-26.8-54.3-29.1
			L275.3,315.6z"/>
		<path class="st1" d="M6.9,628.4L6.9,628.4C34.1,645.4,62.1,661,91,675l25.2,14.5c25.9,13.4,49.6,30.7,70.3,51.2l0,0
			c21.7,20,41.2,42.3,58.1,66.5c15.1,26.6,24.4,56,27.5,86.4c0.4,5.9,0.4,11.7,0,17.6c2.5,23.2,7.7,46,15.3,68.1
			c6.2,20.6,17.6,39.2,32.9,54.3c13.5,12,28.1,22.8,43.6,32.1l12.2,7.6c28.2,16.4,47.7,44.4,53.5,76.5h-40.5v-5.4
			c-14.5-19.4-32.7-35.8-53.5-48.2h-4.6c-14.9-9.1-29-19.6-42.1-31.4c-19.8-20.9-31.9-47.8-34.4-76.5c0-17.6-5.4-35.9-6.9-54.3
			c-1.5-18.4,0-25.2-4.6-37.5c-7.8-65.2-43.1-123.9-97.1-161.3C104.5,708.6,56.3,694,6.9,693.4V628.4 M6.9,623.8v71.9
			c48.8,1.3,96.4,15.8,137.6,42.1c50.6,35.9,83.9,91.4,91.8,152.9c4.6,29.8,6.1,61.2,11.5,91.8c3.2,28.6,15.6,55.4,35.2,76.5
			c14.6,13,30.5,24.5,47.4,34.4c20.4,11.7,38.1,27.6,52,46.6l6.9,8.4h52c-6.7-32.3-27.1-60.2-55.8-76.5
			c-19.4-11.7-37.9-25-55.1-39.8c-15-14.7-26.3-32.8-32.9-52.8c-8.5-27.7-14.4-56.1-17.6-84.9c-2.8-31.3-12.4-61.6-28.3-88.7
			c-17.4-24.5-37.4-47.1-59.6-67.3c-21-20.8-45.3-38.1-71.9-51.2c-36.7-22.2-73.4-39-107-60.4C13,626.8,6.9,623.8,6.9,623.8z"/>
		<path class="st1" d="M448.8,1.4h31.4c2.5,16.2,7.9,31.7,16.1,45.9c16.8,31.4,32.9,64.2,48.9,95.6c4.6,10.7,9.9,20.6,15.3,31.4
			c8,22.7,22.7,42.4,42.1,56.6c10.8,6.8,23.2,10.5,35.9,10.7c19.7-0.3,37.9-10.7,48.2-27.5c12.5-21.1,19.1-45.1,19.1-69.6
			c0.8-15.3,0.8-30.6,0-45.9c0-12.2,0-24.5,0-35.9V1.4h48.2c0,6.9,0,13.8,0,19.9s-4.6,32.1-6.1,47.4s0,30.6,0,45.1s0,27.5-3.8,42.1
			c-1.5,23.8-7.4,47.2-17.6,68.8c-12.1,27.7-39.4,45.7-69.6,45.9c-12.8,1.8-25.9,0.8-38.2-3.1c-28.1-12-51.6-32.6-67.3-58.9
			c-9.2-15.3-17.6-31.4-26-46.6c-3.1-5.2-5.9-10.6-8.4-16.1l-18.4-32.1l-22.9-35.9C462.7,53.9,453.7,28.1,448.8,1.4 M448.8,1.4
			c5.3,26.7,14.6,52.5,27.5,76.5c13,22.9,26,45.9,38.2,68.8c12.2,22.9,22.2,42.1,35.2,62.7c16,26.6,39.8,47.6,68.1,60.4
			c10.5,3.9,21.7,5.9,32.9,6.1c29.5-0.7,56-18.2,68.1-45.1c10.7-21.7,17-45.4,18.4-69.6c0-29.1,4.6-58.1,7.6-86.4s6.1-49.7,9.2-73.4
			h-54.3V58c0,27.5,0,55.1,0,81.8c0.2,24.2-6.2,47.9-18.4,68.8c-9.9,15.9-27.2,25.7-45.9,26c-12.2-0.3-24.2-4-34.4-10.7
			c-17.8-11.9-31.8-28.6-40.5-48.2c-18.4-42.1-39-84.9-61.2-126.9c-8.3-14.7-14-30.8-16.8-47.4H448.8z"/>
		<path class="st1" d="M1397,1.4h55.8c3.1,2.7,5.5,6.1,6.9,9.9c4.3,6.4,10.1,11.6,16.8,15.3c15.1,8.9,32.2,13.6,49.7,13.8
			c21-0.5,41.5-6.3,59.6-16.8c4.8-2.9,9.2-6.5,13-10.7l13.8-11.5h58.1c0.5,8.9,0.5,17.8,0,26.8c-6.9,34.4-10.7,38.2-43.6,43.6
			l-51.2,6.1h-17.6c-13,0.8-26,0.8-39,0h-24.5C1450.6,72.4,1413,43,1397,1.4 M1392.4,1.4c15.5,45.2,55.1,77.7,102.5,84.1h24.5
			c14.5,0.8,29.1,0.8,43.6,0c19.1,0,39,0,58.1-6.1c33.6-5.4,39-10.7,45.9-45.9c2.4-10,3.7-20.3,3.8-30.6h-58.1
			c-8.4,5.4-13.8,14.5-22.9,19.1c-17.6,10.6-37.6,16.4-58.1,16.8c-17-0.3-33.6-5-48.2-13.8c-6.5-3.1-12-7.8-16.1-13.8
			c-3.7-4.4-8.4-7.8-13.8-9.9H1392.4z"/>
		<path class="st1" d="M12.2,1.4h110.9C109,20.3,86.2,30.7,62.7,28.9H35.2L6.9,26.6V1.4l0,0 M6.9,1.4c0,0,0,0,0,5.4s0,15.3,0,22.9
			l0,0C26,29.7,43.6,32,61.9,32l0,0c26.2,3.6,52.2-8.3,66.5-30.6H12.2H6.9z"/>
		<path class="st1" d="M1721.2,93.9L1721.2,93.9c18.6,0.5,37.1,3.3,55.1,8.4c11.6,2.9,22.5,8.1,32.1,15.3
			c14.6,10.9,23.8,27.7,25.2,45.9c1,23.6-7.9,46.6-24.5,63.5c-13.5,13.6-30.4,23.4-48.9,28.3c-12.8,4.6-26.2,7.2-39.8,7.6h-15.3
			c-22.9-5.4-29.1-11.5-35.9-35.2c-1.9-12.7-1.9-25.6,0-38.2c-0.7-5.8-0.7-11.7,0-17.6c0,0,0-5.4,0-7.6c1-14.8,3.8-29.5,8.4-43.6
			c2.8-13.5,14.5-23.3,28.3-23.7h17.6l0,0 M1723.5,97h-18.4c-14.6,1.4-26.8,11.8-30.6,26c-4.4,14.4-7.2,29.3-8.4,44.3
			c-1.1,8.4-1.1,16.9,0,25.2c-0.8,13.2,0.7,26.4,4.6,39c6.9,24.5,13.8,32.1,38.2,37.5h15.3c13.8-0.6,27.4-3.2,40.5-7.6
			c17.9-6,34-16.6,46.6-30.6c31.3-28.4,33.6-76.8,5.2-108c-1.6-1.8-3.4-3.5-5.2-5.2c-9.7-7.6-20.9-13.1-32.9-16.1
			c-18.2-5.1-36.9-7.9-55.8-8.4L1723.5,97z"/>
		<path class="st1" d="M1046,77.8c5.2-1.6,10.8-1.6,16.1,0c7.4,5.8,12.8,13.9,15.3,22.9c7.2,19,9.1,39.6,5.4,59.6l0,0
			c-1.6,14-5.2,27.6-10.7,40.5c0,6.1-7.6,9.2-13,9.2c-3,0.7-6.2,0.7-9.2,0c-16-8.3-29.1-21.4-37.5-37.5c-8.9-13.5-14.2-29-15.3-45.1
			c-0.7-4.8-0.7-9.7,0-14.5l0,0c7.1-19.7,25-33.4,45.9-35.2 M1043,77.8c-22.2,2.1-41,17.1-48.2,38.2c-1.1,5.8-1.1,11.8,0,17.6
			c1,16.6,6.3,32.7,15.3,46.6c8.7,16.5,22.3,29.9,39,38.2c3.5,0.9,7.2,0.9,10.7,0c6.9-0.5,12.9-5,15.3-11.5
			c6.2-13,10.1-27,11.5-41.3c3.6-20.8,1.8-42.1-5.4-61.9c-3.3-9.1-9.1-17.1-16.8-22.9c-4.7-5.6-11.2-9.4-18.4-10.7L1043,77.8z"/>
		<path class="st1" d="M276.8,353.1c17.6,0.3,34.3,8.1,45.9,21.4c17.8,21.4,27,48.6,26,76.5c0.1,18.6-2.2,37.1-6.9,55.1
			c-8.5,37.3-11.6,75.7-9.2,113.9c0,30.6,4.6,61.2,7.6,87.2c3,36.1,14.6,70.9,33.6,101.7c15,21.1,27.8,43.6,38.2,67.3
			c8.4,18.4,15.3,37.5,22.2,55.8v5.4c10.9,36.6,37.1,66.7,71.9,82.6l20.6,9.9h5.4c35.6,19.1,67,45.1,92.5,76.5
			c8.6,10,16.3,20.7,22.9,32.1l0,0c0,0,0,0,0,5.4h-76.5l-9.2-6.9l0,0c-5.7-5.5-12.5-9.6-19.9-12.2h-8.4
			c-10.3,0.5-19.4,6.7-23.7,16.1c-0.6,2.6-2.2,4.8-4.6,6.1h-66.5c-1.6-2.1-2.9-4.4-3.8-6.9c-5-19.9-15.6-38-30.6-52
			c-10.7-9.8-22.5-18.2-35.2-25.2l-8.4-5.4c-15-8.7-28.6-19.5-40.5-32.1c-16.5-20.2-27.8-44.1-32.9-69.6c0-16.1-6.1-33.6-9.2-49.7
			c-3.1-16.1,0-23.7-5.4-35.2c-5-27.6-16.3-53.8-32.9-76.5c-16-20.5-33.7-39.7-52.8-57.3c-22.9-21.1-48.6-38.8-76.5-52.8
			c-27.5-17.6-61.9-34.4-93.3-53.5c-3.1-1.9-5.7-4.6-7.6-7.6V514.4c1.5-3,3.9-5.4,6.9-6.9c15.3-9.2,28.3-16.1,40.5-22.2
			c48.9-21.8,93.6-51.8,132.3-88.7c18.2-18.5,40.4-32.3,65-40.5c7.4-0.7,14.8-0.7,22.2,0 M276.8,356.2c-7.8,0.1-15.5,1.4-22.9,3.8
			c-25,7.7-47.7,21.6-65.8,40.5c-39.3,34.2-83.7,62-131.5,82.6c-14.4,6.2-28.2,13.6-41.3,22.2c-3.7,1.7-6.7,4.7-8.4,8.4v110.1
			c2,3.9,5.2,7.1,9.2,9.2c30.6,18.4,62.7,35.2,94.1,51.2c27.9,13.5,53.7,31,76.5,52c19.1,17.6,36.8,36.8,52.8,57.3
			c16.5,22.6,27.5,48.8,32.1,76.5c5.4,28.3,7.6,58.1,14.5,85.6c5.4,25.8,16.9,50,33.6,70.3c11.9,12.8,25.5,23.9,40.5,32.9
			c15.6,8.6,30.2,18.9,43.6,30.6c14.7,13.6,25.3,31.1,30.6,50.5c0.6,3.6,2.5,6.9,5.4,9.2h64.2c2.9-2,5.2-4.6,6.9-7.6
			c3.4-8.5,11.5-14.2,20.6-14.5h7.6c8,2.4,15.3,6.6,21.4,12.2l11.5,8.4h81.8c0-4.6,0-8.4,0-11.5c-6.3-11.8-14-22.9-22.9-32.9
			c-26.1-31.3-58-57.3-94.1-76.5c-8.1-4.7-16.5-8.8-25.2-12.2c-34.1-16-59.7-45.7-70.3-81.8c-7.6-20.6-15.3-41.3-23.7-61.2
			c-11.1-23.3-23.9-45.8-38.2-67.3c-19.9-30-32.2-64.4-35.9-100.2c0-29.1-6.1-58.1-7.6-87.9c-2.7-37.7,0.4-75.6,9.2-112.4
			c5-18.2,7.3-37,6.9-55.8c0.6-27.9-8.9-55-26.8-76.5c-11.8-14.5-29.5-23-48.2-22.9V356.2z"/>
		<path class="st1" d="M484,1.4h48.2c2.4,1.8,4.2,4.2,5.4,6.9c2.5,8.2,5.8,16.2,9.9,23.7c15.3,26.4,28.3,54,39,82.6
			c3.9,12.4,9,24.5,15.3,35.9c4,7.2,9.8,13.3,16.8,17.6c3.8,1,7.7,1,11.5,0c8.2-0.1,15.5-5.3,18.4-13c5.3-11.2,7.2-23.7,5.4-35.9
			c-2.5-16.2-5.8-32.3-9.9-48.2c-4.9-20.4-8.3-41.1-9.9-61.9c-0.6-1.5-0.6-3.1,0-4.6h63.5c0.5,2.3,0.5,4.6,0,6.9l0,0
			c0,8.4,0,16.1,0,23.7s0,26.8,0,39.8s0,9.2,0,13.8c0,16.8,0,35.2,0,52.8c0.4,20.8-4.6,41.4-14.5,59.6c-7.5,17-23,29-41.3,32.1h-3.8
			c-21.2-0.8-40.9-11.2-53.5-28.3c-13.1-15-23.7-32.1-31.4-50.5c-10.7-26.8-27.5-55.8-44.3-85.6c-11-18.1-19.2-37.6-24.5-58.1
			c-0.8-2-0.8-4.2,0-6.1 M484,4.4c0,0,0,6.1,0,9.9c4.9,19.4,12.1,38.1,21.4,55.8c16.1,28.3,30.6,57.3,44.3,87.2
			c8,18.9,18.9,36.4,32.1,52c13.6,17.2,33.9,27.8,55.8,29.1h9.2c21-2.3,39.2-15.3,48.2-34.4c9.5-19,14.4-39.9,14.5-61.2
			c1.1-22.2,1.1-44.4,0-66.5c0-20.6,0-42.1,0-63.5c0,0,0-8.4,0-11.5h-75.7c-1.1,2.7-1.1,5.7,0,8.4c0.7,20.8,3.3,41.6,7.6,61.9
			c0,16.8,6.9,33.6,9.2,51.2c1.5,10.7-0.1,21.6-4.6,31.4c-2.5,6.7-8.9,11.3-16.1,11.5h-11.5c-6.6-4-11.9-9.9-15.3-16.8
			c-6.5-11.1-11.6-22.9-15.3-35.2c-10.5-28.6-23-56.5-37.5-83.3c-3.2-6.7-6.1-13.6-8.4-20.6c-1.8-3.9-5.1-7-9.2-8.4L484,4.4z"/>
		<path class="st1" d="M1536.2,1101.7L1536.2,1101.7c12.9,0.1,25.7,1.7,38.2,4.6c21.6,1.9,40.2,15.8,48.2,35.9h-168.2
			c10.3-17.9,27.4-30.8,47.4-35.9c11.5-3.1,23.3-4.6,35.2-4.6l0,0 M1536.9,1101.7c-12.1,0-24.2,1.6-35.9,4.6
			c-22.6,5.5-41.4,21-51.2,42.1h177.4c-7-23.1-27.2-39.7-51.2-42.1C1563.1,1103.2,1550.1,1101.7,1536.9,1101.7z"/>
		<path class="st1" d="M1459.7,1.4h144.5c-2.4,3.6-5.2,7-8.4,9.9c-19.2,15.1-42.9,23.2-67.3,22.9h-6.1
			C1497.4,34.2,1474,21.9,1459.7,1.4 M1453.6,1.4c13.9,24.8,40.4,39.8,68.8,39h6.1c25,0.4,49.4-7.9,68.8-23.7
			c6.5-3.5,11.8-8.8,15.3-15.3H1453.6z"/>
		<path class="st1" d="M1107.2,415L1107.2,415c21.9,0.6,42.5,10.7,56.6,27.5c35.2,36.8,49.8,88.7,39,138.4
			c-3.5,22.1-15.9,41.7-34.4,54.3l-25.2,14.5c-28.6,14.5-54.5,33.9-76.5,57.3l-35.2,39c-26.7,28.1-55.9,53.7-87.2,76.5
			c-32.7,23.4-60.7,52.7-82.6,86.4l0,0c-6.4,11.2-14.7,21.3-24.5,29.8c-8.4,7.7-19.2,12.2-30.6,13c-4.3,0.6-8.7,0.6-13,0
			c-13.2-5.4-24.6-14.4-32.9-26c-23.4-32.7-43.1-67.8-58.9-104.8c-7.5-14.3-9.9-30.8-6.9-46.6c4.7-23.8,22-43.1,45.1-50.5l35.2-12.2
			c8.4,0,17.6-5.4,26-9.2c25-8.8,47.6-23.5,65.8-42.8c17.6-19.7,31.8-42.2,42.1-66.5c14.7-36.9,38-69.6,68.1-95.6l9.2-8.4
			c19.9-17.6,41.3-35.9,63.5-52c16-12.7,35.4-20.4,55.8-22.2 M1105.7,415c-21,1.5-41.1,9.5-57.3,22.9
			c-26.9,18.3-52.4,38.5-76.5,60.4c-30.1,26.6-53.6,59.9-68.8,97.1c-9.9,23.9-23.9,45.9-41.3,65c-17.7,19.2-39.7,33.9-64.2,42.8
			c-20.6,7.6-41.3,12.2-61.9,21.4c-20.7,8.7-35.8,27-40.5,48.9c-2.7,17.3,0.3,35,8.4,50.5c16.2,36.9,36.2,72,59.6,104.8
			c8.3,12.2,20,21.8,33.6,27.5c16.5,6.6,35.4,2.4,47.4-10.7c10-9,18.6-19.6,25.2-31.4c22.2-33,49.9-62,81.8-85.6
			c31.8-24.2,61.3-51.3,87.9-81.1l35.2-39c22.4-22.7,48.2-41.8,76.5-56.6l25.2-14.5c18.9-13.1,31.9-33.2,35.9-55.8
			c11.5-50.6-3.5-103.6-39.8-140.7c-14.3-18-35.9-28.7-58.9-29.1L1105.7,415z"/>
		<path class="st1" d="M1564.4,536.6c3.3-0.6,6.7-0.6,9.9,0c10.2,6.3,19.1,14.6,26,24.5l3.8,5.4c17.6,22.2,36.7,45.1,56.6,67.3
			l19.1,19.9c24.8,25.4,48,52.2,69.6,80.3c11.5,16.1,23.7,31.4,35.2,46.6c11.5,15.3,32.9,42.8,48.2,65.8
			c14.6,18.3,21.5,41.7,19.1,65c-2.5,42.3-31.7,78.4-72.6,89.5h-16.1c-22.7,0.5-42.6-15.2-47.4-37.5c-3.8-12.2-6.9-24.5-9.9-36.7
			c0.4-6.1,0.4-12.2,0-18.4c-7.2-38.7-32.1-71.8-67.3-89.5c-27.1-12.4-56.6-18.7-86.4-18.4c-13-1.1-26-1.1-39,0
			c-22.8,4-45,11.2-65.8,21.4c-14.1,7.8-29.8,12.2-45.9,13c-28.4-1.7-52.4-21.5-59.6-48.9c-3.3-13.5,1.8-27.7,13-35.9
			c9.3-6.3,19.3-11.4,29.8-15.3c40.1-14.1,74.5-41,97.9-76.5c15.3-22.9,30.6-48.2,46.6-76.5l3.8-6.1c6.3-12.8,14-24.8,22.9-35.9
			C1558.5,538,1561.4,536.9,1564.4,536.6 M1564.4,536.6c-5.7,0.4-11,3.2-14.5,7.6c-10.5,13.2-19.5,27.6-26.8,42.8
			c-14.5,26.8-29.8,52.8-46.6,76.5c-23,35.3-56.8,62.1-96.3,76.5c-11,3.2-21.4,8.4-30.6,15.3c-12.6,8.6-18.1,24.4-13.8,39
			c7.5,28.6,32.4,49.2,61.9,51.2c16.6-0.9,32.7-5.3,47.4-13c32-16.3,67.4-24.7,103.2-24.5c29.3-0.3,58.3,5.9,84.9,18.4
			c35.9,18.1,60.5,52.7,65.8,92.5c4.6,18.4,8.4,36.7,13.8,55.1c5.4,23.5,26.4,40,50.5,39.8c5.6,0.8,11.2,0.8,16.8,0
			c42.6-11.3,73.4-48.5,76.5-92.5c2.5-24.2-4.7-48.3-19.9-67.3c-26-38.2-55.8-76.5-83.3-111.6c-27.1-35.5-56.7-69-88.7-100.2
			c-19.9-22.2-38.2-45.1-56.6-68.1c-7.8-12.1-18.3-22.3-30.6-29.8c-3.8-1-7.7-1-11.5,0L1564.4,536.6z"/>
		<path class="st1" d="M287.5,1.4H364c5.6,26.3,14.1,52,25.2,76.5c13.8,29.1,29.1,58.1,45.1,86.4c24.1,45.5,55,87,91.8,123.1
			c20,18.2,41.7,34.4,65,48.2c31,16.4,63.8,29,97.9,37.5c26.1,7.6,46.7,27.6,55.1,53.5c9.9,22,15.8,45.5,17.6,69.6
			c2,19-3.2,38.1-14.5,53.5c-8.5,10.9-18.9,20.2-30.6,27.5l-42.1,24.5l-15.3,7.6c-25.6,13.8-48.8,31.6-68.8,52.8l-11.5,13.8
			l-27.5,29.8c-9.9,11.5-23.9,18.7-39,19.9l0,0c-27.8-3.8-51.3-22.6-61.2-48.9c-10.7-26.1-13.4-54.9-7.6-82.6l9.2-40.5l1.5-16.8
			c2.6-17.2,2.6-34.8,0-52c-2.5-23.6-7.1-46.8-13.8-69.6v-9.9c-8-33.6-19-66.3-32.9-97.9c-4.5-11.8-10.7-22.8-18.4-32.9
			c-13.7-12.6-30.2-21.7-48.2-26.8c-21.5-5.3-43.6-8.4-65.8-9.2h-29.8c-14.9,0.1-29.6-2.5-43.6-7.6c-11.9-4.9-19.3-17-18.4-29.8
			c1.4-11.8,5.1-23.2,10.7-33.6c10.1-17,21.4-33.4,33.6-48.9C256.5,84.5,277,44.5,287.5,1.4 M287.5,1.4
			c-11.6,41.1-32,79.1-59.6,111.6c-12.8,15.4-24.3,31.7-34.4,48.9c-5.5,10.8-9.1,22.4-10.7,34.4c-2.6,14.3,5,28.6,18.4,34.4
			c13.1,5.6,27.1,9,41.3,9.9c31.9,1.2,63.6,5,94.8,11.5c17.5,4.6,33.5,13.6,46.6,26c8.8,8.9,16.1,19.2,21.4,30.6
			c14.8,34.7,26.8,70.5,35.9,107c6.2,22.8,10.6,46.1,13,69.6c2.7,16.7,2.7,33.8,0,50.5c-4.6,19.9-9.9,39.8-13.8,58.9
			c-5.4,28.2-2.7,57.3,7.6,84.1c9.6,28.1,34.7,48.1,64.2,51.2l0,0c15.9-1.3,30.7-8.7,41.3-20.6l39-43.6c19.6-21.2,42.6-39,68.1-52.8
			c19.1-10.7,39-20.6,57.3-32.1c12.2-7.5,23.1-17.1,32.1-28.3c11.3-16.3,16.5-36.1,14.5-55.8c-2-24.5-8-48.5-17.6-71.1
			c-8.8-26.6-30.3-47-57.3-54.3c-33.8-8.7-66.5-21.5-97.1-38.2c-23-13.5-44.5-29.4-64.2-47.4c-37-36.8-68.2-79.1-92.5-125.4
			c-16.1-28.3-30.6-56.6-46.6-82.6c-10.6-24.5-18.3-50.2-22.9-76.5H287.5z"/>
		<path class="st1" d="M1126.3,860.1c8.3-0.1,16.3,3.2,22.2,9.2c12,13.9,17.1,32.4,13.8,50.5c0,8.4,0,16.8,0,24.5v30.6
			c-0.4,20,1.1,40,4.6,59.6c2.9,29.7,12.3,58.4,27.5,84.1l4.6,6.1c4.3,6.5,7.9,13.4,10.7,20.6H939c6.1-36.7,15.3-76.5,24.5-107.8
			l5.4-19.9c7.1-43.2,28.1-82.9,59.6-113.2c25.8-24.3,58.8-39.6,94.1-43.6h3.8 M1126.3,860.8h-3.8c-36,4.3-69.7,19.8-96.3,44.3
			c-31.8,30.9-52.9,71-60.4,114.7c-12.2,42.3-22.1,85.1-29.8,128.5l0,0h276c-4.2-11.3-10.1-21.9-17.6-31.3
			c-14.7-25.6-23.8-54-26.8-83.3c-3.5-19.4-5-39.1-4.6-58.9c0-18.4,0-36.7,3.8-55.1c3.5-18.9-1.9-38.3-14.5-52.8
			c-6.5-6.4-15.3-10-24.5-9.9L1126.3,860.8z"/>
		<path class="st1" d="M1826.7,340.1c12.2-1.1,24.5-1.1,36.7,0c11.9,1.7,23.5,5,34.4,9.9l17.6,6.1v180.5l-23.7,6.1
			c-20.2,5.2-41,8-61.9,8.4c-17.1,0.1-34-2.2-50.5-6.9c-43.7-13.6-75.8-51-82.6-96.3c-5.8-35,11-69.9,42.1-87.2
			C1766,346.9,1796.2,339.8,1826.7,340.1 M1826.7,340.1c-31.1-0.4-61.9,7-89.5,21.4c-31.6,17.9-49,53.5-43.6,89.5
			c6.6,46.8,39.7,85.6,84.9,99.4c16.7,4.5,33.9,6.9,51.2,6.9c21.2-0.2,42.2-3,62.7-8.4l26-12.2V356.9c-17.6-7.1-35.8-12.7-54.3-16.8
			C1851.7,339,1839.2,339,1826.7,340.1z"/>
		<path class="st1" d="M66.5,786.7c5.6-0.8,11.2-0.8,16.8,0c38.8,7.2,69.2,37.6,76.5,76.5c8.3,31.3,8.3,64.3,0,95.6
			c-6.8,34.9-32.9,62.8-67.3,71.9c-25.1,5.4-50.8,7.7-76.5,6.9H6.9v-58.1c0,0,0,0,6.1,0h15.3c8.1,0.8,16.3,0.8,24.5,0
			c42.6-7,72.6-45.7,68.8-88.7c0.7-26.9-18.6-50.1-45.1-54.3h-8.4H56.6c-13.8,1.9-27.4,5.2-40.5,9.9H6.9v-52.8l0,0h21.4
			c11.3-2.6,22.8-3.9,34.4-3.8 M62.7,789.7c-11.7-1.1-23.5-1.1-35.2,0l-20.6,1.5v56.6c1.4,0.8,3.2,0.8,4.6,0h5.4
			c13-3.3,26.3-5.1,39.8-5.4h11.5h8.4c25,4.5,42.8,26.6,42.1,52c5.4,41.9-24.2,80.2-66.1,85.6c-0.1,0-0.3,0-0.4,0.1H17.6
			c-3.8,0-7.6,0-10.7,3.8v62.7H13c25.7,0.9,51.4-1.4,76.5-6.9c36.2-9.7,63.4-39.5,69.6-76.5c8.4-32.1,8.4-65.8,0-97.9
			c-8.2-38.3-38.1-68.3-76.5-76.5c-5.8-0.8-11.7-0.8-17.6,0L62.7,789.7z"/>
		<path class="st1" d="M1189,1.4h58.9v32.1c0.8,7.9,0.8,15.8,0,23.7c0,3.8-3.8,9.9-9.9,9.9h-7.6c-2.4-1.6-4.5-3.7-6.1-6.1
			C1207.8,44.2,1195.8,23.8,1189,1.4 M1185.2,1.4c6.6,22.3,18.3,42.8,34.4,59.6c3,2.9,6.7,5,10.7,6.1c3,1,6.2,1,9.2,0
			c6.5-0.7,11.5-5.8,12.2-12.2c1.1-8.1,1.1-16.4,0-24.5V1.4H1185.2z"/>
		<path class="st1" d="M851.8,181.1c4-1,8.2-1,12.2,0c15.4,11.9,24.7,30.2,25.2,49.7c2,11.1-0.8,22.5-7.6,31.4
			c-6.5,5.8-15,8.9-23.7,8.4l0,0c-15.8,0.2-29.5-11.1-32.1-26.8c-5.2-20.5-0.7-42.2,12.2-58.9c3.7-5.2,9.7-8.4,16.1-8.4l0,0
			 M854.1,172.7c-7.7,0.5-14.7,4.4-19.1,10.7c-12.6,17.7-17,40-12.2,61.2c3.3,16.8,18,29,35.2,29.1l0,0c23.7,0,36.7-16.8,34.4-43.6
			c-0.7-20.4-10.6-39.5-26.8-52c-3.9-3.2-8.7-5.1-13.8-5.4L854.1,172.7z"/>
		<path class="st1" d="M1322.8,145.9v3.8c24.1,1.4,47.7,7.4,69.6,17.6c31.3,13,63.5,23.7,96.3,32.1c5.9,0.5,11.7,2.3,16.8,5.4
			c14.5,8.4,16.8,15.3,10.7,29.8c-2.3,5.1-5.1,10-8.4,14.5l0,0l-27.5,35.2c-24.3,29.3-42.8,63.1-54.3,99.4
			c-8.5,28-11.9,57.2-9.9,86.4v15.3c0.4,7.6,0.4,15.3,0,22.9c0,17.1-3.7,34.1-10.7,49.7c-4.4,8.6-10.7,16.2-18.4,22.2
			c-5.1,3-10.9,4.9-16.8,5.4c-13-1.3-23.9-10.4-27.5-22.9c-3.9-14.5-6-29.4-6.1-44.3V480c0-12.2,0-25.2,0-37.5c0-29.1,0-58.9,0-87.9
			v-19.1c-0.2-18.9-1.8-37.9-4.6-56.6c0-15.3-6.9-29.8-10.7-44.3c-3.8-14.5-3.8-15.3-5.4-22.9c0.3-3.6,0.3-7.1,0-10.7
			c-5-11.1-8.1-23-9.2-35.2c-0.9-8,4.9-15.1,12.9-16c0.8-0.1,1.6-0.1,2.4-0.1h4.6v-3.8 M1326.6,145.9h-4.6
			c-11.5,0-17.6,6.9-18.4,19.1c0.4,15.9,3.3,31.6,8.4,46.6c5.4,22.9,12.2,44.3,16.1,67.3c3.1,18.4,4.6,37.1,4.6,55.8
			c0,34.4,0,69.6,0,104s0,48.2,0,72.6c-0.1,16.4,2.4,32.6,7.6,48.2c3.3,14,15.4,24.3,29.8,25.2c6.6-0.3,12.9-2.4,18.4-6.1
			c8.3-5.8,14.9-13.7,19.1-22.9c7.6-16,11.5-33.5,11.5-51.2c0-10.7,0-22.2,0-38.2c-1.1-27.9,2.2-55.8,9.9-82.6
			c11.1-33.6,28.2-65,50.5-92.5l30.6-38.2c3.5-4.7,6.4-9.8,8.4-15.3c7-10,4.6-23.8-5.4-30.9c-1.6-1.2-3.4-2.1-5.3-2.8
			c-5.6-3.4-11.9-5.5-18.4-6.1c-32.9-8.2-65.1-18.9-96.3-32.1c-22.1-10.5-45.9-16.8-70.3-18.4L1326.6,145.9z"/>
		<path class="st1" d="M68.8,837.9L68.8,837.9c20.4,0.9,38,14.7,43.6,34.4c6.8,22.4,3.8,46.6-8.4,66.5
			c-10.3,17.9-27.4,30.8-47.4,35.9c-11.7,1.5-23.5,1.5-35.2,0H6.9V850.1h7.6l0,0c15.7-6,32.2-9.3,48.9-9.9 M63.5,840.2
			c-15.6-1.3-31.3-0.5-46.6,2.3H6.9v133h17.6c11.7,1.5,23.5,1.5,35.2,0c45.2-12.4,71.8-59.1,59.5-104.3c-0.2-0.7-0.4-1.3-0.6-2
			c-6-21-24.8-35.9-46.6-36.7L63.5,840.2z"/>
		<path class="st1" d="M490.1,327.1h8.4c15.5,5,30.2,12.2,43.6,21.4l0,0c26.8,17.6,54.3,35.2,76.5,52.8
			c18.1,10.9,34.5,24.3,48.9,39.8c16.8,13.1,27,33,27.5,54.3c-0.3,16-7.6,31.1-19.9,41.3c-13.6,14.2-29.3,26-46.6,35.2l-9.9,5.4
			c-20.6,11.5-41.3,23.7-61.2,37.5c-7.6,5.3-15.5,10.2-23.7,14.5c-3.8,0.7-7.7,0.7-11.5,0c-10.7,0-16.8-8.4-17.6-22.9
			c-0.7-9.4-0.7-18.9,0-28.3c6.2-31,6.2-63,0-94.1c0-13.8-7.6-28.3-11.5-41.3c-3.8-13-9.2-31.4-12.2-46.6
			c-4.4-16.2-6.5-32.9-6.1-49.7c0-14.5,6.1-22.2,16.8-22.2 M491.7,324.1c-12.2,0-19.1,8.4-19.9,25.2c-0.2,17,1.8,34,6.1,50.5
			c6.1,29.8,16.8,58.1,23.7,87.9c6.1,30.8,6.1,62.5,0,93.3c-0.8,9.4-0.8,18.9,0,28.3c0,16.8,8.4,26,20.6,26c4.3,0.9,8.7,0.9,13,0
			c8.3-4.1,16.3-9,23.7-14.5c22.9-16.1,47.4-29.1,71.9-42.8c17.8-11,33.6-24.9,46.6-41.3c10.9-10.7,17.2-25.2,17.6-40.5
			c0.5-20.5-7.2-40.3-21.4-55.1c-14.5-15.3-31-28.7-48.9-39.8l-82.6-53.5c-13.7-9.3-28.6-16.8-44.3-22.2h-9.2L491.7,324.1z"/>
		<path class="st1" d="M319.6,126.8L319.6,126.8c14,2.1,24.7,13.4,26,27.5c3,6.3,3,13.6,0,19.9c-2.4,5.3-7.3,9-13,9.9h-14.5
			c-6.6,1.1-13.3,1.1-19.9,0c-7.3-2.3-12.3-9.1-12.2-16.8c0-7.6,0-9.9,10.7-20.6c5.6-7,14-11.2,22.9-11.5l0,0 M319.6,135.2
			c-9.8,0.3-18.9,4.8-25.2,12.2c-9.9,10.7-11.5,13.8-11.5,22.9c0.2,9,6,17,14.5,19.9c6.8,1.1,13.8,1.1,20.6,0h15.3
			c12.4-2.8,20.1-15,17.4-27.4c-0.6-2.5-1.5-4.9-2.8-7c-4-12.5-15.2-21.2-28.3-22.2V135.2z"/>
		<path class="st1" d="M1057.5,979.3c3,0.2,5.7,1.5,7.6,3.8c10.2,10.7,12.6,26.5,6.1,39.8c-2.6,6.9-8.8,11.8-16.1,13
			c-2.7,1.1-5.7,1.1-8.4,0c-6.3-5.9-9.7-14.3-9.2-22.9c0.1-11.2,5.5-21.7,14.5-28.3h5.4 M1057.5,984.7c-2.3-0.6-4.6-0.6-6.9,0
			c-17,12.6-20.6,36.5-8,53.5c0.6,0.8,1.2,1.6,1.9,2.3c3.4,2.4,7.4,3.7,11.5,3.8c7.9-1.6,14.5-7.1,17.6-14.5
			c7.2-14.1,4.8-31.3-6.1-42.8c-2.5-3.1-6-5-9.9-5.4V984.7z"/>
		<path class="st1" d="M1806.8,395.2c29.5,0.1,57.5,13.3,76.5,35.9c11.1,11.5,11.1,29.8,0,41.3c-16.8,16.7-39.8,25.8-63.5,25.2l0,0
			c-19.7,2.4-39.4-3.7-54.3-16.8c-12.9-9.6-19.9-25.3-18.4-41.3c0.5-16.8,11.1-31.6,26.8-37.5
			C1784.3,397.5,1795.5,395.2,1806.8,395.2 M1806.8,395.2c-11.6,0-23,2.3-33.6,6.9c-16.9,6.4-28.4,22.4-29.1,40.5
			c-0.2,16.3,7.9,31.5,21.4,40.5c13.7,12,31.5,18.3,49.7,17.6l0,0c24.5,0.6,48.2-8.8,65.8-26c12.4-12.8,12.4-33.1,0-45.9
			c-19.1-22.6-46.9-36-76.5-36.7L1806.8,395.2z"/>
		<path class="st1" d="M537.5,1.4h93.3v9.2c-0.4,8.2-0.4,16.3,0,24.5c1.7,13.6,4.3,27.2,7.6,40.5c0,11.5,5.4,22.9,7.6,35.2
			c2.3,11.6,2.3,23.6,0,35.2c-0.4,7.5-4,14.5-9.9,19.1c-2.8,2.9-6.7,4.5-10.7,4.6c-2.9-1.9-5.3-4.5-6.9-7.6
			c-9.2-8.9-16-19.9-19.9-32.1c0-7.6-6.1-14.5-8.4-22.2c-6.5-15.1-14.2-29.7-22.9-43.6l-7.6-15.3C551.5,33.4,544.1,17.6,537.5,1.4
			 M533,1.4c9.2,22.2,20.6,42.8,32.1,64.2s17.6,43.6,26.8,65c4.5,12.5,11.5,24,20.6,33.6c4.3,4.9,10.3,7.9,16.8,8.4
			c4.7-0.1,9.3-1.7,13-4.6c6.2-5.5,10-13.2,10.7-21.4c2.7-12.1,2.7-24.6,0-36.7c0-25.2-11.5-49.7-14.5-76.5c0-11.5,0-22.2-3.8-33.6
			L533,1.4z"/>
		<path class="st1" d="M530.7,1126.2c3.5-0.7,7.2-0.7,10.7,0c9.9,3.4,18.6,9.5,25.2,17.6h-58.1l0,0c2.4-10,11.1-17.2,21.4-17.6
			 M529.9,1126.2c-11.7,0.4-21.7,8.5-24.5,19.9v5.4h68.1c-6.8-12.5-18-22-31.4-26.8c-4-0.7-8.2-0.7-12.2,0V1126.2z"/>
		<path class="st1" d="M265.3,421.2c9.2,0.1,17.6,5.1,22.2,13c3.1,4.9,5.1,10.4,6.1,16.1c2.3,16.5,2.3,33.2,0,49.7
			c0,4.6,0,9.2,0,13.8c-1.8,21.4-1.8,42.9,0,64.2v14.5c0,19.1,0,39.8,0,59.6c1.1,20-1.8,40-8.4,58.9c-4.6,11.5-10.7,17.6-20.6,17.6
			h-9.2c-11.3-3.8-21.9-9.5-31.4-16.8h-4.6L130,642.9c-11.4-8.4-21.4-18.4-29.8-29.8c-21-18.9-23.1-51.2-4.6-72.6
			c4.9-7.2,11.1-13.4,18.4-18.4l35.9-26.8c21.4-15.3,42.8-31.4,62.7-48.2c12.5-12,27.4-21.4,43.6-27.5c3-0.6,6.1-0.6,9.2,0l0,0
			 M265.3,419.6h-9.9c-16.8,6.2-32.2,15.8-45.1,28.3c-31.4,26.8-65.8,49.7-97.9,76.5c-7.5,5.4-14.2,11.8-19.9,19.1
			c-18.6,22.8-16.6,56,4.6,76.5c9.2,10.3,19.7,19.3,31.4,26.8c30.6,22.9,61.9,45.1,93.3,67.3c10,7.5,21.1,13.4,32.9,17.6h9.9
			c11.5-0.4,21.3-8.6,23.7-19.9c6.6-19.1,9.5-39.4,8.4-59.6c0-25.2,0-49.7,0-76.5c-1.5-21.4-1.5-42.8,0-64.2c3.1-21,3.1-42.4,0-63.5
			c-1.2-6.1-3.3-12-6.1-17.6c-5.4-8.8-14.9-14.3-25.2-14.5V419.6z"/>
		<path class="st1" d="M1095,485.4h9.2l0,0c13,3.4,24,12,30.6,23.7c7.2,12.3,8.8,27,4.6,40.5c-3.9,11.4-10.1,21.8-18.4,30.6
			c-7.8,9-16.3,17.4-25.2,25.2l-13.8,13.8c-28.6,29.7-55.6,60.8-81.1,93.3c-17.9,22.1-39.1,41.5-62.7,57.3
			c-13.6,8.6-29.1,13.8-45.1,15.3l0,0c-7.2,0.7-14.2-2.5-18.4-8.4c-4.1-6.8-4.1-15.4,0-22.2c3.8-9,8.7-17.4,14.5-25.2
			c27.2-35,48.3-74.3,62.7-116.2c8.8-26.4,23.1-50.7,42.1-71.1c19.2-18.5,40.8-34.5,64.2-47.4c10.8-6,22.8-9.7,35.2-10.7l0,0
			 M1093.4,483.9L1093.4,483.9c-12.9,1.1-25.4,5-36.7,11.5c-23.9,12.6-45.7,28.5-65,47.4c-19.8,22-34.4,48.1-42.8,76.5
			c-15.3,39.2-36.4,75.8-62.7,108.6c-6,7.7-10.9,16.2-14.5,25.2c-5,7.7-5,17.6,0,25.2c4.5,6.9,12.5,10.7,20.6,9.9l0,0
			c16.4-1.3,32.2-6.8,45.9-16.1c24-15.7,45.2-35.3,62.7-58.1c26-31.4,52-61.9,81.1-91c13-13,26.8-25.2,39-39
			c8.7-9.2,15.2-20.1,19.1-32.1c8.4-29.1-8.4-59.5-37.5-68.1h-10.7L1093.4,483.9z"/>
		<path class="st1" d="M1572.9,642.9L1572.9,642.9c10.1,0.5,19.8,4.2,27.5,10.7c24.4,16.5,45.3,37.9,61.2,62.7
			c7.5,10.3,12.7,22,15.3,34.4c1.6,3.9,1.6,8.3,0,12.2c-2.2,3.1-5.5,5.3-9.2,6.1h-14.5l0,0c-22.8-1.6-45.5-4.4-68.1-8.4
			c-17.8-2.5-35.1-8-51.2-16.1c-12.3-6.7-18-21.1-13.8-34.4c3.9-16.7,11.5-32.4,22.2-45.9c13-16.1,23.7-22.9,35.2-22.9l0,0
			 M1577.4,641.4c-17.1,1.1-32.5,10.5-41.3,25.2c-11.1,13.9-18.9,30.1-22.9,47.4c-4.1,14.5,2.2,30,15.3,37.5
			c16.1,8.8,33.8,14.5,52,16.8c22.9,3.8,45.9,6.9,68.8,8.4l0,0c5.1,0.7,10.2,0.7,15.3,0c9.2-1.3,15.6-9.8,14.3-19
			c-0.1-0.8-0.3-1.6-0.5-2.4c-2.6-12.8-8.1-24.8-16.1-35.2c-15.7-25.7-36.9-47.6-61.9-64.2c-8.3-6.5-18.5-10.3-29.1-10.7
			L1577.4,641.4z"/>
		<path class="st1" d="M202.6,560.3L202.6,560.3c9.2,0,14.5,8.4,17.6,14.5c3.3,6.7,4.8,14,4.6,21.4c0,9.9-4.6,20.6-13.8,20.6
			c-3.2,1-6.7,1-9.9,0l0,0c-4.5-2.2-8.4-5.3-11.5-9.2c-5-5.2-8.2-11.9-9.2-19.1c-0.7-3-0.7-6.2,0-9.2c3.8-8.5,12.1-14.2,21.4-14.5
			l0,0 M201.9,564.9c-10.5,0.6-19.8,6.7-24.5,16.1c-0.9,3.8-0.9,7.7,0,11.5c1.1,7.8,4.6,15,9.9,20.6c4.4,4.7,9.6,8.5,15.3,11.5
			c3.8,1,7.7,1,11.5,0c10.7,0,16.8-11.5,16.8-23.7c0.4-8-1.4-16-5.4-22.9c-2.8-8.9-10.6-15.2-19.9-16.1L201.9,564.9z"/>
	</g>
</g>
</svg>
