<svg xmlns="http://www.w3.org/2000/svg" viewBox="0 0 112.39 27"><defs><style>.cls-1{fill:#b11016;}</style></defs><title>dotbes-logo</title><g id="Layer_2" data-name="Layer 2"><g id="Layer_1-2" data-name="Layer 1"><path class="cls-1" d="M73.74,15.47A9.18,9.18,0,0,0,72.86,14l1.06,1.87A3.79,3.79,0,0,0,73.74,15.47Z"/><path class="cls-1" d="M73.92,15.9h0L72.86,14c-.14-.18-.28-.36-.43-.52a7.23,7.23,0,0,0-.83-.83A8.41,8.41,0,0,0,73,10.27a5.86,5.86,0,0,0,.32-1.06,7.06,7.06,0,0,0,.2-1.73,7.39,7.39,0,0,0-2.18-5.29A7.34,7.34,0,0,0,69,.59,7.26,7.26,0,0,0,66.07,0H56.39a2.38,2.38,0,0,0-.88.17l-.25.11a2.15,2.15,0,0,0-.48.36h0a.66.66,0,0,0-.19.46V25.88a.65.65,0,0,0,.18.46h0a2.35,2.35,0,0,0,.73.47,2.2,2.2,0,0,0,.88.18h10a8.07,8.07,0,0,0,3.19-.63,8.34,8.34,0,0,0,2.6-1.69,8,8,0,0,0,1.75-2.53,8.13,8.13,0,0,0,0-6.25ZM58.69,4.58H65.8a3.06,3.06,0,0,1,1.2.24,3.11,3.11,0,0,1,1,.66,3.3,3.3,0,0,1,.69,1,2.78,2.78,0,0,1,.25,1.18,2.85,2.85,0,0,1-.23,1.15,3.15,3.15,0,0,1-.65,1,3.44,3.44,0,0,1-1,.68,3.16,3.16,0,0,1-1.19.29H58.69Zm11,15.5a4.09,4.09,0,0,1-.81,1.2,4,4,0,0,1-1.2.83,3.65,3.65,0,0,1-1.47.31H58.69V15.31h7.49a4.12,4.12,0,0,1,1.44.25,3.69,3.69,0,0,1,1.2.67A3.09,3.09,0,0,1,70,18.67,3.46,3.46,0,0,1,69.66,20.08Z"/><path class="cls-1" d="M52.75,12.6a2.06,2.06,0,0,1-2.06,2.06H45.22V10.55h5.47A2.06,2.06,0,0,1,52.75,12.6Z"/><path class="cls-1" d="M52.75,24.42a2.06,2.06,0,0,1-2.06,2H49.4a8.09,8.09,0,0,1-3.22-.65A8.42,8.42,0,0,1,43.54,24a8.74,8.74,0,0,1-1.79-2.64,8.08,8.08,0,0,1-.64-3.22V.09A4.11,4.11,0,0,1,45.22,4.2v14a4.23,4.23,0,0,0,.32,1.63,4.45,4.45,0,0,0,.89,1.32,4.59,4.59,0,0,0,1.33.9,4.11,4.11,0,0,0,1.64.33h1.29a2.07,2.07,0,0,1,2.06,2.06Z"/><path class="cls-1" d="M38.51,12.91a9.46,9.46,0,0,0-2-3.12,9.26,9.26,0,0,0-3-2,10,10,0,0,0-3.73-.7A9.19,9.19,0,0,0,26,7.84,9.46,9.46,0,0,0,23,9.9,9.61,9.61,0,0,0,21,13a10.22,10.22,0,0,0-.75,4,10.07,10.07,0,0,0,.75,3.9A9.41,9.41,0,0,0,23,24a9.52,9.52,0,0,0,3,2.08,7.31,7.31,0,0,0,1.11.39,9.19,9.19,0,0,0,2.58.36,9.42,9.42,0,0,0,2.62-.36,7.19,7.19,0,0,0,1.1-.39,9.5,9.5,0,0,0,3-2.07,9.69,9.69,0,0,0,2-3.13,10.07,10.07,0,0,0,.75-3.9A10.61,10.61,0,0,0,38.51,12.91ZM34.68,19.3a5.6,5.6,0,0,1-1.15,1.81,5.29,5.29,0,0,1-5.89,1.13A5.34,5.34,0,0,1,26,21a5.55,5.55,0,0,1-1.13-1.8A6.16,6.16,0,0,1,24.41,17a6.44,6.44,0,0,1,.41-2.33A5.45,5.45,0,0,1,26,12.85a4.83,4.83,0,0,1,1.71-1.17,5.48,5.48,0,0,1,4.16,0,5.11,5.11,0,0,1,1.71,1.17,5.66,5.66,0,0,1,1.15,1.8,6.65,6.65,0,0,1,0,4.65Z"/><path class="cls-1" d="M13.28,9.69a5.77,5.77,0,0,1,1.21,1.91,6.4,6.4,0,0,1,.45,2.45,6.48,6.48,0,0,1-.45,2.45,5.62,5.62,0,0,1-1.21,1.9,5.47,5.47,0,0,1-1.8,1.24,5.58,5.58,0,0,1-4.41,0,5.7,5.7,0,0,1-1.79-1.28,6,6,0,0,1-1.19-1.9,6.36,6.36,0,0,1-.43-2.37,6.6,6.6,0,0,1,.43-2.45,5.74,5.74,0,0,1,1.2-1.91,5.14,5.14,0,0,1,1.8-1.24,5.92,5.92,0,0,1,4.38,0A5.36,5.36,0,0,1,13.28,9.69Z"/><path class="cls-1" d="M16.39,21.47l0,0a13.33,13.33,0,0,1-10.73,5.4H0V18.12l0,.05a10.06,10.06,0,0,0,2.16,3.29,10.18,10.18,0,0,0,3.2,2.19,8.16,8.16,0,0,0,1.17.42,10.07,10.07,0,0,0,5.48,0,9.58,9.58,0,0,0,1.17-.42A10.27,10.27,0,0,0,16.39,21.47Z"/><path class="cls-1" d="M0,9.88l0,0V.09H5.69A13.38,13.38,0,0,1,18.52,9.71a10,10,0,0,0-2.13-3.25,9.53,9.53,0,0,0-3.18-2.1,10.26,10.26,0,0,0-3.93-.75,9.81,9.81,0,0,0-3.9.79A10,10,0,0,0,0,9.88Z"/><path class="cls-1" d="M81.28,19A4.84,4.84,0,0,0,82,20.37a5.12,5.12,0,0,0,2.51,1.74,5.51,5.51,0,0,0,1.59.23,4.72,4.72,0,0,0,3.31-1.1,3.44,3.44,0,0,1,.8-.42,2.27,2.27,0,0,1,.74-.13A1.79,1.79,0,0,1,92,21a2.47,2.47,0,0,1,.74.77,2.53,2.53,0,0,1,.29.7,2,2,0,0,1,0,.77,2.22,2.22,0,0,1-.24.77,2,2,0,0,1-.58.68,7.16,7.16,0,0,1-1,.79,6.77,6.77,0,0,1-1.32.66,8.25,8.25,0,0,1-1.67.46,11.11,11.11,0,0,1-2.1.18,9.49,9.49,0,0,1-3.8-.77,10,10,0,0,1-3.11-2.09,10.08,10.08,0,0,1-2.11-3.1,9.76,9.76,0,0,1,0-7.6A9.82,9.82,0,0,1,82.32,8a9.49,9.49,0,0,1,3.8-.77A9.34,9.34,0,0,1,89.89,8,10.14,10.14,0,0,1,93,10.06a9.84,9.84,0,0,1,2.13,3.06,9.54,9.54,0,0,1,.81,3.76,2,2,0,0,1-.61,1.53,2.21,2.21,0,0,1-1.58.58Zm10.1-3.68a4.71,4.71,0,0,0-.71-1.52,4.61,4.61,0,0,0-1.15-1.14A5.46,5.46,0,0,0,88,11.93a6.43,6.43,0,0,0-1.78-.24,5.94,5.94,0,0,0-1.76.25,5.12,5.12,0,0,0-1.5.74,4.89,4.89,0,0,0-1.13,1.14,4.64,4.64,0,0,0-.7,1.49Z"/><path class="cls-1" d="M103.86,18.52c-.58-.25-1.19-.52-1.82-.82a8.49,8.49,0,0,1-1.72-1.09,5.42,5.42,0,0,1-1.27-1.54,4.2,4.2,0,0,1-.5-2.13,5.36,5.36,0,0,1,.51-2.35,5.28,5.28,0,0,1,1.42-1.8,6.54,6.54,0,0,1,2.16-1.14,8.81,8.81,0,0,1,2.74-.4,12.1,12.1,0,0,1,1.77.13,9.53,9.53,0,0,1,1.75.43,5.85,5.85,0,0,1,1.49.78,3.35,3.35,0,0,1,1,1.16A2.27,2.27,0,0,1,111.6,11a1.94,1.94,0,0,1-.46,1.06,2,2,0,0,1-.66.51,1.81,1.81,0,0,1-1.53,0c-.28-.18-.54-.34-.78-.47a5.53,5.53,0,0,0-.74-.35,4.08,4.08,0,0,0-.8-.21,5.35,5.35,0,0,0-.95-.08,4.43,4.43,0,0,0-2,.36A1.17,1.17,0,0,0,103,13a.87.87,0,0,0,.26.64,2.51,2.51,0,0,0,.69.46,7.2,7.2,0,0,0,1.07.39l1.36.41a18.49,18.49,0,0,1,2.3.86,7.69,7.69,0,0,1,1.92,1.19,5.57,5.57,0,0,1,1.32,1.66,4.86,4.86,0,0,1,.49,2.28,5.17,5.17,0,0,1-.52,2.3A5.83,5.83,0,0,1,110.43,25a7.14,7.14,0,0,1-2.19,1.26,8.27,8.27,0,0,1-2.78.46,12,12,0,0,1-2-.18,8.65,8.65,0,0,1-2-.59,8,8,0,0,1-1.83-1.08,5.05,5.05,0,0,1-1.35-1.65A2.61,2.61,0,0,1,97.87,22a2,2,0,0,1,.26-1,1.79,1.79,0,0,1,.71-.68,2.07,2.07,0,0,1,1-.25,2.65,2.65,0,0,1,1,.22,3.71,3.71,0,0,1,1.06.68,3.08,3.08,0,0,0,.61.58,4.93,4.93,0,0,0,1.79.83,4.94,4.94,0,0,0,1.1.12,3.72,3.72,0,0,0,1-.11,3.17,3.17,0,0,0,.8-.31,1.77,1.77,0,0,0,.55-.5,1.11,1.11,0,0,0,.2-.65,1,1,0,0,0-.45-.79,5.33,5.33,0,0,0-1.09-.66,10,10,0,0,0-1.35-.54Z"/></g></g></svg>